<svg xmlns="http://www.w3.org/2000/svg" viewBox="0 0 500 500"><g id="freepik--background-simple--inject-80"><path d="M454.79,392.82l-.65-1.08a28.61,28.61,0,0,0-26.11-14,27.46,27.46,0,0,0-4,.56,30,30,0,0,0-21.41,18.6c-2,5.47-2.61,11.77-6.47,16.11-5,5.64-13.57,5.82-21.07,5.59s-16.05,0-21.05,5.63c-3.14,3.55-4.13,8.6-3.88,13.36.67,12.59,9.44,23.85,20.6,29.44s24.29,6.1,36.5,3.64c17.11-3.45,33.38-12.92,43.16-27.55S462.62,408.61,454.79,392.82Z" style="fill:#f5f5f5"></path><path d="M33.63,169.47l1.25,1.68c10.49,14.17,27.78,21.7,45,19a44.61,44.61,0,0,0,6.56-1.53,49.61,49.61,0,0,0,32.4-33.84c2.51-9.3,2.5-19.74,8.19-27.46,7.41-10,21.43-11.63,33.8-12.39s26.4-2.37,33.77-12.45c4.61-6.32,5.48-14.77,4.35-22.55-3-20.61-19.14-37.79-38.34-45.3s-40.87-6.34-60.58-.45C72.46,42.45,47.15,60.48,33.29,86S18.37,144.7,33.63,169.47Z" style="fill:#f5f5f5"></path><circle cx="365.8" cy="85.74" r="33.15" transform="translate(221.16 432.5) rotate(-80.55)" style="fill:#f5f5f5"></circle></g><g id="freepik--Water--inject-80"><path d="M67.69,348.91c-4.63,13.66,4.89,28.14,16,37.39,20.14,16.87,46.16,24.93,71.9,30.18,41.68,8.5,84.89,10.66,126.85,3.64S365,396.71,398.55,370.51c11.61-9.08,23.09-20.84,23.92-35.55.56-9.95-4-19.65-10.57-27.16S397,294.64,388.61,289.23c-5.15-3.34-10.45-6.71-14.23-11.55s-5.79-11.54-3.5-17.23c2.55-6.35,9.49-9.72,13.55-15.23,6.56-8.89,4.2-22.08-2.71-30.71s-17.32-13.62-27.59-17.69c-56.25-22.29-121.11-24.73-177.06-1.71-8.13,3.34-16.36,7.44-21.72,14.41s-7,17.52-1.58,24.44c8.76,11.19,30.44,8.09,35.37,21.41,2.23,6-.55,13-5.18,17.39s-10.79,6.83-16.83,8.95c-22.82,8-46.87,13.73-67.11,27S62.53,333.75,66.49,357.6" style="fill:#f5f5f5"></path><path d="M371.73,363.36c-.27.18-2.22-2-4.81-5.89a63.7,63.7,0,0,1-4.05-7.2,53.48,53.48,0,0,1-3.6-9.52,52.05,52.05,0,0,1-1.71-10.06,48.94,48.94,0,0,1,.19-8.3c.53-4.7,1.46-7.47,1.77-7.41s.12,2.94.07,7.51a71.42,71.42,0,0,0,.36,8,64.3,64.3,0,0,0,1.83,9.57,66.94,66.94,0,0,0,3.27,9.22c1.17,2.78,2.43,5.21,3.46,7.27C370.65,360.62,372.06,363.14,371.73,363.36Z" style="fill:#e0e0e0"></path><path d="M377.59,337.83c-.14.31-1.83-.06-4.33-1.25-.61-.32-1.28-.67-2-1.09s-1.45-.88-2.17-1.46a23.46,23.46,0,0,1-4.38-4.19,19.16,19.16,0,0,1-3.08-5.29,17,17,0,0,1-1.1-4.86c-.19-2.83.36-4.52.67-4.49s.53,1.7,1.15,4.2a22.19,22.19,0,0,0,4.39,8.81,38.75,38.75,0,0,0,7.46,6.79C376.36,336.53,377.75,337.49,377.59,337.83Z" style="fill:#e0e0e0"></path><path d="M348.33,330.66c-.16-.36.59-1,1.45-2.25a32.85,32.85,0,0,0,2.94-5.33c2-4.41,3.33-8.26,4.06-8.1s.49,4.4-1.69,9.19a15.31,15.31,0,0,1-4,5.52C349.67,330.84,348.44,331,348.33,330.66Z" style="fill:#e0e0e0"></path><g style="opacity:0.1"><path d="M295.15,341.35c-.91.4-.59,1.89.27,2.38a6.78,6.78,0,0,0,2.92.4c1,.06,2.13.52,2.31,1.5.31,1.76-2.67,2.53-2.81,4.31-.12,1.5,1.78,2.25,3.27,2.42s3.4.62,3.63,2.11a13.15,13.15,0,0,1-.13,1.76c0,1.73,2,2.82,3.73,2.81s3.38-.71,5.11-.83,3.77.65,4.14,2.34a10.55,10.55,0,0,0,.26,1.8c.46,1.13,1.93,1.37,3.15,1.4a47.41,47.41,0,0,0,14.4-1.9,3.36,3.36,0,0,0,2.4-1.63,2.36,2.36,0,0,0-1.49-2.78,6.88,6.88,0,0,0-3.44-.19l7.64-2.53c2.41-.8,4.93-1.66,6.73-3.46a8.21,8.21,0,0,0-7.07-13.91"></path></g><path d="M339.28,332.3a68.31,68.31,0,0,0-41.78,1,10.44,10.44,0,0,0-4.65,2.71c-1.18,1.38-1.56,3.61-.38,5,.95,1.1,2.52,1.34,4,1.47a67.82,67.82,0,0,0,11.49,0,17.26,17.26,0,0,0-5,2.31,5.84,5.84,0,0,0-2.55,4.67,5.69,5.69,0,0,0,2.87,4.43,12.9,12.9,0,0,0,5.24,1.55c11.23,1.36,22.43-.22,30.83-4.07,3.53-1.62,7.47-5.09,8.64-7.06C349.54,341.66,348.11,335.5,339.28,332.3Z" style="fill:#455a64"></path><path d="M371.73,223.94c.38.13-1.18,5.13-3.42,13.26-.53,2-1.17,4.25-1.74,6.66-.3,1.2-.6,2.44-.92,3.72s-.59,2.61-.89,4c-1.18,5.43-2.31,11.43-3.19,17.78s-1.36,12.44-1.66,18c-.06,1.39-.12,2.74-.17,4.06s-.06,2.59-.09,3.83c-.08,2.47,0,4.77,0,6.88.07,8.42.32,13.65-.08,13.69s-1.22-5.15-1.76-13.63c-.11-2.12-.26-4.44-.27-6.94,0-1.25-.06-2.54,0-3.88s0-2.7.07-4.11A179.37,179.37,0,0,1,359,269c.89-6.43,2.11-12.51,3.43-18,.35-1.36.68-2.69,1-4s.72-2.52,1.06-3.73c.67-2.4,1.41-4.61,2.06-6.63C369.26,228.61,371.43,223.83,371.73,223.94Z" style="fill:#455a64"></path><path d="M377.59,272.39c.27.3-1.58,2.22-4.09,5.61a54.48,54.48,0,0,0-7.66,14.42,74.22,74.22,0,0,0-3.58,16c-.48,4.22-.65,6.89-1.05,6.9s-.8-2.65-.79-7c0-1.08.06-2.28.17-3.56s.22-2.65.49-4.08a49.29,49.29,0,0,1,2.31-9.15,42.59,42.59,0,0,1,8.69-14.71C375.07,273.6,377.38,272.15,377.59,272.39Z" style="fill:#455a64"></path><path d="M348.33,286c.11-.13.54.06,1.22.6a14.77,14.77,0,0,1,1,1.15,15.89,15.89,0,0,1,1.08,1.68,41.82,41.82,0,0,1,3.76,10.62c1.95,8.54,2.06,15.64,1.37,15.71s-2-6.8-3.91-15.12A95.58,95.58,0,0,0,350,290.21c-.21-.66-.48-1.2-.66-1.72s-.43-.89-.57-1.26C348.38,286.59,348.21,286.14,348.33,286Z" style="fill:#455a64"></path><path d="M307.3,172.11c.74.24-1.94,9.17-2.7,20.51s.52,20.55-.25,20.68c-.33.06-1.11-2.18-1.74-6a66.53,66.53,0,0,1,2.12-29.59C305.89,174.11,307,172,307.3,172.11Z" style="fill:#455a64"></path><path d="M312.37,189.46c.7.25-.46,5.07-1.6,11s-1.91,10.83-2.65,10.8-1.12-5.14.09-11.3S311.72,189.21,312.37,189.46Z" style="fill:#455a64"></path><g style="opacity:0.1"><path d="M330,368.06c0,.72-2.49,1.4-5.63,1.52s-5.7-.36-5.72-1.08,2.49-1.4,5.62-1.52S330,367.34,330,368.06Z"></path></g><path d="M366.1,313.84a6.23,6.23,0,0,1-1.87.91,20.71,20.71,0,0,1-9.91,1.07,6.3,6.3,0,0,1-2-.49,30.92,30.92,0,0,0,13.8-1.49Z" style="fill:#263238"></path><path d="M376.06,315.28a6.26,6.26,0,0,1-1.05.82,13.84,13.84,0,0,1-1.3.87c-.53.32-1.11.71-1.8,1a36.42,36.42,0,0,1-5,2.19,39.71,39.71,0,0,1-6.43,1.62,38.59,38.59,0,0,1-6.62.43,35.51,35.51,0,0,1-5.38-.56c-.77-.11-1.44-.3-2-.44a15.68,15.68,0,0,1-1.51-.43,6.75,6.75,0,0,1-1.26-.46c0-.1,1.84.49,4.86,1a39.37,39.37,0,0,0,5.33.44,42.18,42.18,0,0,0,6.53-.46,42.72,42.72,0,0,0,6.35-1.57,38.28,38.28,0,0,0,4.94-2.06C374.47,316.32,376,315.19,376.06,315.28Z" style="fill:#263238"></path></g><g id="freepik--Fireflies--inject-80"><path d="M330.48,154.8c-2.75,0-4.68,2.76-5.71,5.3a9,9,0,0,0,.79,7.9,10.3,10.3,0,0,0,9.16,4.92,9.79,9.79,0,0,0,8.41-6,9.31,9.31,0,0,0-2.25-10c-3.39-3.12-6.91-3.66-11.38-2" style="fill:#5EFF77"></path><g style="opacity:0.7000000000000001"><path d="M330.48,154.8c-2.75,0-4.68,2.76-5.71,5.3a9,9,0,0,0,.79,7.9,10.3,10.3,0,0,0,9.16,4.92,9.79,9.79,0,0,0,8.41-6,9.31,9.31,0,0,0-2.25-10c-3.39-3.12-6.91-3.66-11.38-2" style="fill:#fff"></path></g><path d="M332.65,161.61a31.21,31.21,0,0,0-3.51-12.23,9,9,0,0,0-2.73-3.41,3.43,3.43,0,0,0-5.57,3.44,9.63,9.63,0,0,0,1.62,3.8c2.41,3.81,5.62,6.21,10.19,8.4" style="fill:#fff"></path><path d="M332.65,161.61s-.15,0-.42-.15-.65-.28-1.15-.53a25.06,25.06,0,0,1-4-2.41,19.2,19.2,0,0,1-4.74-5.05,10.73,10.73,0,0,1-1.72-3.76,4.18,4.18,0,0,1,1.44-4.18,3.47,3.47,0,0,1,2.28-.56,4.72,4.72,0,0,1,2.13.74,8.6,8.6,0,0,1,2.66,3.18,30.43,30.43,0,0,1,2.58,6.43,29.38,29.38,0,0,1,.86,4.58c.05.55.08,1,.09,1.27a1.49,1.49,0,0,1,0,.44s-.1-.6-.27-1.68a35.63,35.63,0,0,0-1-4.51,31.31,31.31,0,0,0-2.64-6.29,8.13,8.13,0,0,0-2.52-3,3.55,3.55,0,0,0-3.83-.18,3.69,3.69,0,0,0-1.24,3.66,10.4,10.4,0,0,0,1.62,3.6,19.56,19.56,0,0,0,4.57,5,30.92,30.92,0,0,0,3.86,2.53A12.08,12.08,0,0,1,332.65,161.61Z" style="fill:#263238"></path><path d="M335.76,161.61a31.19,31.19,0,0,0,11.73-4.92,9.1,9.1,0,0,0,3.07-3.1,3.43,3.43,0,0,0-4.06-5.13,9.7,9.7,0,0,0-3.59,2c-3.5,2.83-5.51,6.31-7.15,11.1" style="fill:#fff"></path><path d="M335.76,161.61a1.33,1.33,0,0,1,.1-.43c.08-.28.21-.69.39-1.21a26,26,0,0,1,1.93-4.24,19,19,0,0,1,4.46-5.3,10.47,10.47,0,0,1,3.54-2.15,4.17,4.17,0,0,1,4.31.94,3.46,3.46,0,0,1,.83,2.2,4.67,4.67,0,0,1-.49,2.2,8.64,8.64,0,0,1-2.85,3A30.72,30.72,0,0,1,341.9,160a29.5,29.5,0,0,1-4.45,1.39c-.54.11-1,.19-1.25.23a1.46,1.46,0,0,1-.44,0,14.49,14.49,0,0,1,1.64-.47,35.79,35.79,0,0,0,4.36-1.53,32.68,32.68,0,0,0,5.94-3.36,8.21,8.21,0,0,0,2.67-2.85,3.55,3.55,0,0,0-.27-3.83,3.69,3.69,0,0,0-3.78-.8,10.27,10.27,0,0,0-3.38,2,19.64,19.64,0,0,0-4.44,5.11,29.9,29.9,0,0,0-2.06,4.14A12.58,12.58,0,0,1,335.76,161.61Z" style="fill:#263238"></path><path d="M332.65,160.83c-1,0-1.76,1-2.15,2a3.4,3.4,0,0,0,.3,3,3.86,3.86,0,0,0,3.45,1.85,3.67,3.67,0,0,0,3.17-2.26,3.52,3.52,0,0,0-.85-3.78,3.74,3.74,0,0,0-4.28-.74" style="fill:#5EFF77"></path><path d="M329.36,170.54a4.16,4.16,0,0,1-1.41-1,9.35,9.35,0,0,1-2.35-3.42,7,7,0,0,1-.42-4.14,2.92,2.92,0,0,1,.73-1.56c.08,0-.23.62-.37,1.63a7.63,7.63,0,0,0,.55,3.87C327.23,168.92,329.5,170.39,329.36,170.54Z" style="fill:#fff"></path><path d="M332.46,171.58c0,.14-.38.33-.88.22s-.8-.43-.72-.54.42,0,.82,0S332.43,171.44,332.46,171.58Z" style="fill:#fff"></path><path d="M342.62,162.27c.06,0,.21.44.24,1.21a7,7,0,0,1-.57,2.91,6.9,6.9,0,0,1-1.73,2.41c-.58.51-1,.7-1.05.65a13.85,13.85,0,0,0,2.3-3.27A14.26,14.26,0,0,0,342.62,162.27Z" style="fill:#fff"></path><path d="M336.48,155.89c-.14.06-.33-.06-.56-.14s-.44-.15-.49-.29.28-.36.69-.19S336.61,155.84,336.48,155.89Z" style="fill:#fff"></path><path d="M332.16,166.26c0,.05-.32,0-.68-.36a2.69,2.69,0,0,1-.36-3.5c.29-.4.56-.54.6-.49a5.28,5.28,0,0,0-.55,2.25C331.3,165.45,332.26,166.15,332.16,166.26Z" style="fill:#fff"></path><path d="M333.78,167c0,.15-.19.25-.39.23s-.36-.15-.34-.29.19-.25.39-.23S333.79,166.82,333.78,167Z" style="fill:#fff"></path><path d="M237.85,137.07c-2.06.52-3,3-3.28,5.05a7,7,0,0,0,2.09,5.78,8,8,0,0,0,7.79,2,7.6,7.6,0,0,0,5.18-6.1,7.21,7.21,0,0,0-3.58-7.09c-3.14-1.7-5.88-1.44-8.91.68" style="fill:#5EFF77"></path><g style="opacity:0.7000000000000001"><path d="M237.85,137.07c-2.06.52-3,3-3.28,5.05a7,7,0,0,0,2.09,5.78,8,8,0,0,0,7.79,2,7.6,7.6,0,0,0,5.18-6.1,7.21,7.21,0,0,0-3.58-7.09c-3.14-1.7-5.88-1.44-8.91.68" style="fill:#fff"></path></g><path d="M240.77,141.77a24.09,24.09,0,0,0-5-8.5,7,7,0,0,0-2.68-2.05,2.66,2.66,0,0,0-3.53,3.63,7.53,7.53,0,0,0,1.94,2.55c2.52,2.4,5.38,3.59,9.22,4.37" style="fill:#fff"></path><path d="M240.77,141.77a5.65,5.65,0,0,1-1.31-.19,19.18,19.18,0,0,1-3.46-1,14.92,14.92,0,0,1-4.53-2.88,8.2,8.2,0,0,1-2-2.52,3.26,3.26,0,0,1,.3-3.46,3.16,3.16,0,0,1,3.4-.72,6.68,6.68,0,0,1,2.62,1.9,23.75,23.75,0,0,1,3.14,4.35,21.72,21.72,0,0,1,1.49,3.28,5.56,5.56,0,0,1,.36,1.28c-.09,0-.64-1.78-2.17-4.38a25.66,25.66,0,0,0-3.18-4.2,6.17,6.17,0,0,0-2.43-1.74,2.65,2.65,0,0,0-2.84.57,2.78,2.78,0,0,0-.23,2.91,8.12,8.12,0,0,0,1.88,2.38,15.2,15.2,0,0,0,4.35,2.89C238.91,141.39,240.8,141.66,240.77,141.77Z" style="fill:#263238"></path><path d="M243.1,141.18a24,24,0,0,0,7.86-5.9,7,7,0,0,0,1.72-2.91,2.66,2.66,0,0,0-4-3.08,7.6,7.6,0,0,0-2.3,2.22c-2.09,2.79-2.94,5.77-3.26,9.67" style="fill:#fff"></path><path d="M243.1,141.18a5.54,5.54,0,0,1,0-1.32,19.89,19.89,0,0,1,.63-3.56,14.71,14.71,0,0,1,2.34-4.83,8.22,8.22,0,0,1,2.26-2.3,3.3,3.3,0,0,1,3.48-.11,3.17,3.17,0,0,1,1.1,3.3,6.67,6.67,0,0,1-1.58,2.82,23.34,23.34,0,0,1-4,3.63,22.14,22.14,0,0,1-3.09,1.87,5.22,5.22,0,0,1-1.22.5c0-.09,1.69-.84,4.09-2.67a24.38,24.38,0,0,0,3.8-3.64,6.15,6.15,0,0,0,1.45-2.62,2.65,2.65,0,0,0-.9-2.75,2.79,2.79,0,0,0-2.92.11,7.92,7.92,0,0,0-2.14,2.14,15.11,15.11,0,0,0-2.37,4.66C243.26,139.29,243.21,141.2,243.1,141.18Z" style="fill:#263238"></path><path d="M240.62,141.18c-.77.2-1.12,1.11-1.23,1.91a2.64,2.64,0,0,0,.78,2.17,3,3,0,0,0,2.94.74,2.88,2.88,0,0,0,1.95-2.3,2.73,2.73,0,0,0-1.35-2.67,2.9,2.9,0,0,0-3.36.26" style="fill:#5EFF77"></path><path d="M240,149.09c0,.06-.51-.07-1.26-.43a7.06,7.06,0,0,1-2.42-2.12,5.33,5.33,0,0,1-1.1-3c0-.85.24-1.33.3-1.31s0,.51.07,1.28a6,6,0,0,0,1.14,2.77C238.12,148.22,240.07,148.92,240,149.09Z" style="fill:#fff"></path><path d="M242.51,149.28c.06.13-.21.37-.62.39s-.69-.2-.64-.33.32-.17.62-.19S242.45,149.15,242.51,149.28Z" style="fill:#fff"></path><path d="M248.36,140.38a4.74,4.74,0,0,1-1,6,14.65,14.65,0,0,0,1.05-2.89A14,14,0,0,0,248.36,140.38Z" style="fill:#fff"></path><path d="M242.56,136.76a.7.7,0,0,1-.46.06.61.61,0,0,1-.41-.19c-.09-.11.13-.38.49-.33S242.67,136.67,242.56,136.76Z" style="fill:#fff"></path><path d="M241.28,145.35c0,.06-.26.07-.61-.11a2.06,2.06,0,0,1-.94-2.6c.15-.36.34-.51.4-.47s-.27.87.06,1.77S241.34,145.21,241.28,145.35Z" style="fill:#fff"></path><path d="M242.63,145.57a.28.28,0,0,1-.24.3.26.26,0,1,1-.08-.51A.27.27,0,0,1,242.63,145.57Z" style="fill:#fff"></path><path d="M274.57,89.59c-2.06.51-3,3-3.28,5a7,7,0,0,0,2.08,5.77,8,8,0,0,0,7.8,2,7.57,7.57,0,0,0,5.17-6.09,7.22,7.22,0,0,0-3.58-7.1c-3.13-1.7-5.88-1.44-8.9.68" style="fill:#5EFF77"></path><g style="opacity:0.7000000000000001"><path d="M274.57,89.59c-2.06.51-3,3-3.28,5a7,7,0,0,0,2.08,5.77,8,8,0,0,0,7.8,2,7.57,7.57,0,0,0,5.17-6.09,7.22,7.22,0,0,0-3.58-7.1c-3.13-1.7-5.88-1.44-8.9.68" style="fill:#fff"></path></g><path d="M277.48,94.28a24.06,24.06,0,0,0-4.94-8.5,7,7,0,0,0-2.69-2,2.65,2.65,0,0,0-3.53,3.63,7.49,7.49,0,0,0,1.94,2.54c2.52,2.4,5.38,3.6,9.22,4.37" style="fill:#fff"></path><path d="M277.48,94.28a5.78,5.78,0,0,1-1.31-.19,20.1,20.1,0,0,1-3.46-1,15.05,15.05,0,0,1-4.52-2.89,8.3,8.3,0,0,1-2-2.51,3.27,3.27,0,0,1,.3-3.47,3.15,3.15,0,0,1,3.4-.71,6.68,6.68,0,0,1,2.62,1.9,23.38,23.38,0,0,1,3.14,4.34,23.07,23.07,0,0,1,1.5,3.29,5,5,0,0,1,.35,1.27,48.47,48.47,0,0,0-2.17-4.37,24.64,24.64,0,0,0-3.17-4.21A6.32,6.32,0,0,0,269.71,84a2.7,2.7,0,0,0-2.85.57,2.84,2.84,0,0,0-.23,2.92,8.08,8.08,0,0,0,1.88,2.37,15.25,15.25,0,0,0,4.35,2.9C275.62,93.9,277.51,94.17,277.48,94.28Z" style="fill:#263238"></path><path d="M279.81,93.69a24.14,24.14,0,0,0,7.87-5.9,7,7,0,0,0,1.71-2.91,2.64,2.64,0,0,0-4-3.07,7.24,7.24,0,0,0-2.3,2.21c-2.1,2.79-2.95,5.77-3.27,9.67" style="fill:#fff"></path><path d="M279.81,93.69a6,6,0,0,1,0-1.32,19.62,19.62,0,0,1,.62-3.55A15.07,15.07,0,0,1,282.81,84a8.19,8.19,0,0,1,2.26-2.29,3.28,3.28,0,0,1,3.48-.11,3.17,3.17,0,0,1,1.11,3.29,6.56,6.56,0,0,1-1.59,2.82,22.57,22.57,0,0,1-3.95,3.63A20.83,20.83,0,0,1,281,93.19a5.17,5.17,0,0,1-1.23.5A44,44,0,0,0,283.9,91a25.35,25.35,0,0,0,3.81-3.64,6.38,6.38,0,0,0,1.45-2.62,2.68,2.68,0,0,0-.9-2.76,2.81,2.81,0,0,0-2.93.11,8.06,8.06,0,0,0-2.13,2.15,15.17,15.17,0,0,0-2.37,4.65C280,91.8,279.93,93.71,279.81,93.69Z" style="fill:#263238"></path><path d="M277.34,93.7c-.78.19-1.13,1.11-1.24,1.9a2.61,2.61,0,0,0,.79,2.17,3,3,0,0,0,2.93.74,2.82,2.82,0,0,0,1.95-2.29,2.72,2.72,0,0,0-1.35-2.68,2.88,2.88,0,0,0-3.35.26" style="fill:#5EFF77"></path><path d="M276.7,101.6c0,.06-.52-.06-1.26-.43A7,7,0,0,1,273,99.05a5.22,5.22,0,0,1-1.09-3c0-.85.23-1.33.29-1.31s0,.51.07,1.29a5.89,5.89,0,0,0,1.15,2.76C274.83,100.74,276.78,101.43,276.7,101.6Z" style="fill:#fff"></path><path d="M279.22,101.79c.06.13-.2.38-.61.4s-.7-.2-.65-.34.32-.17.62-.19S279.16,101.66,279.22,101.79Z" style="fill:#fff"></path><path d="M285.08,92.9a4.73,4.73,0,0,1-1,6,14.7,14.7,0,0,0,1-2.89A15,15,0,0,0,285.08,92.9Z" style="fill:#fff"></path><path d="M279.27,89.27a.61.61,0,0,1-.45.06c-.16,0-.34-.06-.42-.19s.13-.38.49-.33S279.39,89.19,279.27,89.27Z" style="fill:#fff"></path><path d="M278,97.86c0,.06-.26.07-.6-.1a2.1,2.1,0,0,1-1-1.13,2.06,2.06,0,0,1,0-1.48c.15-.35.35-.5.4-.47s-.26.87.07,1.78S278.05,97.73,278,97.86Z" style="fill:#fff"></path><path d="M279.34,98.08a.27.27,0,0,1-.24.3.26.26,0,0,1-.32-.21.27.27,0,0,1,.24-.3A.28.28,0,0,1,279.34,98.08Z" style="fill:#fff"></path></g><g id="freepik--Frog--inject-80"><path d="M90.32,282.64l22.45-2.56,17.77,3.86,39.86-21.73-6.15-13.38c-2.57-1.89-15-10.72-15-10.72S142.14,226,137.79,224.6s-34.4,1.67-34.4,1.67L83,243.58,70.49,271.49Z" style="fill:#f5f5f5"></path><polygon points="82.97 243.58 98.6 248.62 90.31 282.63 70.49 271.49 82.97 243.58" style="fill:#e0e0e0"></polygon><path d="M80.35,249.84c-.66,2.09,1.15,4.41,3.27,4.95a6.57,6.57,0,0,0,6-2,2.64,2.64,0,0,0,3.19,1.85,4.31,4.31,0,0,0,2.82-2.77,12.37,12.37,0,0,0,.57-4.07l-13.11-4.23Z" style="fill:#455a64"></path><polygon points="130.54 283.94 125.43 260.83 111.41 257.97 112.27 280.21 130.54 283.94" style="fill:#e0e0e0"></polygon><path d="M90.32,282.64l-.35-.17-1-.55-3.89-2.14-14.66-8.16-.12-.06.06-.13L82.77,243.5l0-.05,0,0,20.4-17.34.06-.05h.07c7-.7,14.4-1.36,22.06-1.8,1.92-.11,3.85-.2,5.8-.23a37,37,0,0,1,5.93.21c.25.06.51.09.76.16l.71.33a9.17,9.17,0,0,1,1.28.85,20.68,20.68,0,0,1,2.19,2.1,49.87,49.87,0,0,1,3.77,4.76q1.94,2.73,3.64,5.57l-.07-.08,15,10.72,0,0,0,.06q3.15,6.85,6.15,13.38l.09.21-.2.11-39.88,21.69-.07,0h-.06l-18.27-3.78h0l-16.2,1.72-4.29.43-1.1.1-.37,0,.37-.07,1.11-.14,4.3-.51,16.15-1.86h0l18.28,3.68-.13,0L170.29,262l-.11.32q-3-6.51-6.16-13.38l.08.1-15-10.71,0,0,0,0c-1.12-1.87-2.33-3.72-3.62-5.53A50.43,50.43,0,0,0,141.7,228a18.64,18.64,0,0,0-2.13-2,5,5,0,0,0-2.52-1.24,37.58,37.58,0,0,0-5.82-.21c-1.94,0-3.87.13-5.78.23-7.64.43-15,1.08-22,1.77l.14-.06c-7.35,6.22-14.25,12.06-20.45,17.29l.06-.07L70.63,271.55l-.06-.19,14.55,8.27L89,281.84l1,.59Z" style="fill:#263238"></path><path d="M96,248a6.48,6.48,0,0,0-1.09-6.41,3.95,3.95,0,0,0-1-7L83,243.58Z" style="fill:#455a64"></path><path d="M90.32,282.64a1.55,1.55,0,0,1,.07-.52l.3-1.47c.31-1.35.72-3.16,1.23-5.38,1-4.53,2.55-10.78,4.23-17.68.78-3.19,1.53-6.24,2.21-9l.16.29L87.3,245.14,84.1,244a6.45,6.45,0,0,1-1.13-.45,7.93,7.93,0,0,1,1.18.3l3.24,1,11.28,3.54.22.06-.06.23c-.67,2.79-1.41,5.84-2.18,9-1.68,6.9-3.23,13.14-4.37,17.65-.57,2.2-1,4-1.39,5.34l-.4,1.44A3.39,3.39,0,0,1,90.32,282.64Z" style="fill:#263238"></path><path d="M111.41,258.28a12.14,12.14,0,0,1-2-1.3l-4.6-3.32c-1.79-1.31-3.39-2.52-4.51-3.45a9.5,9.5,0,0,1-1.74-1.59,11.33,11.33,0,0,1,2,1.3l4.6,3.32c1.79,1.31,3.39,2.52,4.51,3.45A9.5,9.5,0,0,1,111.41,258.28Z" style="fill:#263238"></path><path d="M112.77,280.08c-.14,0-.56-4.87-.94-10.88s-.56-10.91-.42-10.92.57,4.86.94,10.88S112.92,280.07,112.77,280.08Z" style="fill:#263238"></path><path d="M126,261a54.16,54.16,0,0,1-7.36-1.09,54.4,54.4,0,0,1-7.27-1.61,54.16,54.16,0,0,1,7.36,1.09A54.4,54.4,0,0,1,126,261Z" style="fill:#263238"></path><path d="M130.54,283.94a23,23,0,0,1-.78-3.34l-1.57-8.12c-.6-3.1-1.13-5.9-1.56-8.12A31.27,31.27,0,0,1,126,261a18.73,18.73,0,0,1,.95,3.3c.5,2.06,1.1,4.93,1.71,8.1s1.1,6.06,1.43,8.16A22.28,22.28,0,0,1,130.54,283.94Z" style="fill:#263238"></path><path d="M164.82,248.83a10,10,0,0,1-1.52.5l-4.18,1.22c-3.54,1-8.42,2.41-13.79,4s-10.22,3.17-13.68,4.39c-1.73.62-3.14,1.11-4.1,1.48A9.48,9.48,0,0,1,126,261a9.51,9.51,0,0,1,1.44-.7c.93-.44,2.32-1,4-1.65,3.45-1.3,8.27-2.92,13.65-4.54s10.29-3,13.85-3.9c1.78-.46,3.23-.82,4.23-1.05A7.94,7.94,0,0,1,164.82,248.83Z" style="fill:#263238"></path><path d="M104,242.55c.52,1.07-.09,2.33-.52,3.45s-.47,2.7.62,3.2c.37.17.8.17,1.19.31,1.15.41,1.49,1.83,2.12,2.88a3.34,3.34,0,0,0,1.89,1.54,2.22,2.22,0,0,0,2.28-.63c.76-.93.65-2.59,1.76-3.05s2.2.78,3.38.78c1.55,0,2.41-2,3.93-2.28s2.61,1,3.44,2.18a26.38,26.38,0,0,0,3,3.88,7,7,0,0,0,4.3,2.16,4,4,0,0,0,3.68-1.73,2.77,2.77,0,0,0-.84-3.74l3.76.36c.51,0,1.12.06,1.43-.35s0-1.24-.51-1.62c-2.41-1.88-6.32.22-8.84-1.51a6.47,6.47,0,0,1-2.13-3.45,6.29,6.29,0,0,1-.47-2.33,2.28,2.28,0,0,1,1.13-2,3,3,0,0,1,2.56.27,6.08,6.08,0,0,0,2.5.87c.88,0,1.84-.77,1.65-1.63a8.69,8.69,0,0,0,4.07,2c1.53.16,3.28-.81,3.4-2.33a1.66,1.66,0,0,0,2.62-.1,2.56,2.56,0,0,0-.22-2.89,5.67,5.67,0,0,0-4-1.89,28,28,0,0,1-4.49-.54c-1.59-.46-3-1.49-4.63-1.82-2.11-.44-4.29.35-6.2,1.34-3.12,1.63-6,3.88-9.32,4.87-1.85.54-3.8.69-5.63,1.3s-3.61,1.85-4.15,3.7" style="fill:#e0e0e0"></path><path d="M146.44,234.19a.71.71,0,0,0-.63-.41,2.66,2.66,0,0,0-.79.12,16.61,16.61,0,0,1-6.69-.2,4.11,4.11,0,0,1-1.55-.47,2.81,2.81,0,0,1-1.1-1.53,8.11,8.11,0,0,1-.31-1.9l-1.93,3.51a1.4,1.4,0,0,1,0,1.6,5,5,0,0,1-1.24,1.18,3.15,3.15,0,0,0-1.1,1.28c-.79.85,1.31.13,1.88-.22a3.29,3.29,0,0,1,1.82-.78,2.15,2.15,0,0,1,1.66,1.37,10.39,10.39,0,0,0,1,2,1.57,1.57,0,0,0,.8.57.88.88,0,0,0,.91-.28c.33-.45,0-1.07-.27-1.54l-.9-1.41c-.23-.36-.47-.81-.27-1.19a.85.85,0,0,1,1-.34,2.76,2.76,0,0,1,.94.57,18.07,18.07,0,0,0,4.36,2.52,1.85,1.85,0,0,0,.89.18.65.65,0,0,0,.59-.59c0-.4-.45-.61-.82-.77a7.29,7.29,0,0,1-1.9-1.16.75.75,0,0,1-.34-.56.54.54,0,0,1,.4-.46,1.77,1.77,0,0,1,.65-.05,11.89,11.89,0,0,0,1.79,0,1.83,1.83,0,0,0,.86-.25A.7.7,0,0,0,146.44,234.19Z" style="fill:#455a64"></path><path d="M104,232.63A6.45,6.45,0,0,1,106.8,228c2.75-1.81,6.89-4.46,7.83-4.68,1.45-.34,3.06-2.12,5.77-2.12a38.2,38.2,0,0,0,10.26-1.87,14.77,14.77,0,0,0,3.64-1.78s.94-1.35,1.78-1.35a4.32,4.32,0,0,1,3,1.35,3.34,3.34,0,0,0,1.7,1.1c.93.17,2.71,0,3.39.94s1.18,1.86.76,2.88-2.8,3.29-5.09,4.78a12.53,12.53,0,0,1-2.2,3.44,56.42,56.42,0,0,1-6.27,3.9s-5.35,5.17-7,5.85-9,1.87-12.63-.42L104,232.63Z" style="fill:#455a64"></path><path d="M137.19,221.16a2.78,2.78,0,0,0-2.73.58,3.34,3.34,0,0,0-1.22,2.34,2.13,2.13,0,0,0,.84,1.47,3,3,0,0,0,2.93.5,2.81,2.81,0,0,0,1.77-2.36,2.57,2.57,0,0,0-1.51-2.5" style="fill:#5EFF77"></path><path d="M132,222.27s0-.36.36-.79a4,4,0,0,1,3.75-1.5c.53.09.82.26.8.32a10.24,10.24,0,0,0-2.68.4A10.2,10.2,0,0,0,132,222.27Z" style="fill:#263238"></path><path d="M142.44,221.54a.41.41,0,0,1-.26-.36.4.4,0,0,1,.15-.41c.12-.07.33.08.37.34S142.58,221.57,142.44,221.54Z" style="fill:#263238"></path><g style="opacity:0.2"><path d="M131.74,225.6a1.52,1.52,0,0,0-1.2,1.39,1.41,1.41,0,0,0,1.16,1.39,1.3,1.3,0,0,0,1.42-1.06,1.64,1.64,0,0,0-.47-1.3,1.33,1.33,0,0,0-.6-.4.64.64,0,0,0-.67.2" style="fill:#fff"></path></g><path d="M137.57,222.64a2.86,2.86,0,0,0-2.91.83.62.62,0,0,0-.2.43.45.45,0,0,0,.26.35.93.93,0,0,0,.44.08,4.57,4.57,0,0,0,1.79-.53,1.71,1.71,0,0,0,.59-.36.62.62,0,0,0,.16-.64" style="fill:#263238"></path><g style="opacity:0.2"><path d="M111.53,237.92a29.34,29.34,0,0,0,6.49,0,14.44,14.44,0,0,0,6.08-2.14c1.69-1.12,3.06-2.67,4.8-3.69a26.23,26.23,0,0,1,4.81-1.88,10.45,10.45,0,0,0,4.43-2.57l.65-1.25s4.19-2.21,4.89-2.79.57-.18.57-.18a22.48,22.48,0,0,1-4.44,3.81,27.65,27.65,0,0,1-1.74,2.95,20.52,20.52,0,0,1-2.85,2.14L131,234.91s-5.07,4.78-6.16,5.24a22.49,22.49,0,0,1-8.55,1.2,9.84,9.84,0,0,1-4.61-1.34l-.14-2.09" style="fill:#fff"></path></g><path d="M126.42,234.71l-2.13,4.61a3.6,3.6,0,0,0-.3,2c.23,1.61.66,4.58.84,5.26.25.94,1.42,3.55,2.75,4.05a13.52,13.52,0,0,1,2.56,1.34s4.16,3.72,4.66,3.77,1.34-.55.89-1.11-1.77-.83-2.22-1.83a13.25,13.25,0,0,0-1.05-1.89,10.41,10.41,0,0,0,4.22,1.28,14.35,14.35,0,0,0,4.39-.45c.22-.16.38-.72-.39-.83s-5.46.33-7.4-1.11c0,0,3.2-.24,3.34-.67s-.44-.84-1.15-.56a7.62,7.62,0,0,1-3.59.12c-1-.28-1.65,0-1.87-.89a22.33,22.33,0,0,0-.55-3c-.34-.72-1.84-4.89-1.84-4.89a25.76,25.76,0,0,0,3-3.94c.4-1,1.65-3.78,1.65-3.78l-.35-1.78-5.42,1.39Z" style="fill:#455a64"></path><path d="M103,240.33a4.91,4.91,0,0,1,.54,6c-.2.3-.45.64-.24,1a.63.63,0,0,0,.75.25c.58-.18.81-.73,1.12-1.19a1.21,1.21,0,0,1,1.08-.67,9.54,9.54,0,0,0,.91,3.51,3.76,3.76,0,0,0,1.42,1.46.54.54,0,0,0,.7-.8l-1.15-1.78a.9.9,0,0,1,0-1c.38-.62,1-.38,1.42.08s.71,1.19,1.42,1.38a.74.74,0,0,0,.85-.34.77.77,0,0,0-.17-.82c-.5-.75-1-1.51-1.51-2.26a1.73,1.73,0,0,0,1.59.11.67.67,0,0,0,.25-.87c-.3-.5-1.19,0-1.48-.48a.51.51,0,0,1,0-.63c2.19-1.7,1.1-7.88-1.94-10.07a30.37,30.37,0,0,1-3.41-2.24c-.87-.83-1.6-2.05-2.91-1.93a2,2,0,0,0-1.28.66,4.18,4.18,0,0,0-.88,3,10.34,10.34,0,0,0,2.87,7.67" style="fill:#455a64"></path><path d="M111,242.81s-.06.23-.36.51A2.7,2.7,0,0,1,109,244a3.61,3.61,0,0,1-2.43-.72,8.08,8.08,0,0,1-2.06-2.27,22.65,22.65,0,0,1-2.42-4.91,8.12,8.12,0,0,1-.6-2.18,12.7,12.7,0,0,1,.94,2,30.3,30.3,0,0,0,2.51,4.75,8.35,8.35,0,0,0,1.91,2.17,3.37,3.37,0,0,0,2.13.74A3.12,3.12,0,0,0,111,242.81Z" style="fill:#263238"></path><path d="M108.15,239.31a5.18,5.18,0,0,1-.36-1.5,20.37,20.37,0,0,0-.94-3.52,21.15,21.15,0,0,0-2.64-4.42,3.71,3.71,0,0,1,1.18,1,10.48,10.48,0,0,1,2,3.22,13.44,13.44,0,0,1,.81,3.66A4.28,4.28,0,0,1,108.15,239.31Z" style="fill:#263238"></path><path d="M144.82,222.63a11.46,11.46,0,0,1-4.21,3.26,10.54,10.54,0,0,1-5.15,1.36,44.57,44.57,0,0,0,4.91-1.82C143,224.13,144.71,222.5,144.82,222.63Z" style="fill:#263238"></path><path d="M128.06,221.58a46.57,46.57,0,0,1-6.86,1.28,46.93,46.93,0,0,1-6.94.77,46.57,46.57,0,0,1,6.86-1.28A46.93,46.93,0,0,1,128.06,221.58Z" style="fill:#263238"></path></g><g id="freepik--Plants--inject-80"><path d="M424.82,184.08A35.31,35.31,0,0,1,445.65,182a161.62,161.62,0,0,1-17.82,10.58A53.55,53.55,0,0,1,408,198.24,38.87,38.87,0,0,1,424.82,184.08Z" style="fill:#455a64"></path><path d="M414.08,179.87A38.21,38.21,0,0,1,432.16,166a58.71,58.71,0,0,1,22.74-3.49A48.61,48.61,0,0,1,414,180.34Z" style="fill:#455a64"></path><path d="M457.6,146.85a33.27,33.27,0,0,1-14.37,11.2,35,35,0,0,1-18.59,2l.35-.62A54.39,54.39,0,0,1,457.6,146.85Z" style="fill:#455a64"></path><path d="M463,133.5a23,23,0,0,1-11.4,7.92c-4.5,1.38-10.13,1.84-14.59.35A45.14,45.14,0,0,1,463,133.5Z" style="fill:#455a64"></path><path d="M446.46,130.14a21.29,21.29,0,0,1,17.11-2.46,24.32,24.32,0,0,1-17.22,2.56Z" style="fill:#455a64"></path><path d="M445.94,115a35.72,35.72,0,0,1-.75,16.57A19.32,19.32,0,0,1,445.94,115Z" style="fill:#ebebeb"></path><path d="M465.23,111.29a24.94,24.94,0,0,1-15.31,15.21l-.35-.17A31.28,31.28,0,0,1,465.23,111.29Z" style="fill:#455a64"></path><path d="M416.22,145.85a33.65,33.65,0,0,1,7.71-19.09c2.86,12.68.59,26.67-2.53,39.29l-.22-.22A33.68,33.68,0,0,1,416.22,145.85Z" style="fill:#455a64"></path><path d="M431.45,129.75c1.34-5.72,4-11,6.57-16.32a90.92,90.92,0,0,1-4.53,33.11l-.71.92C430.19,142.19,430.11,135.48,431.45,129.75Z" style="fill:#455a64"></path><path d="M401.34,143.83c3.25,6.93,6.41,13.94,8.43,21.33s2.84,15.2,1.38,22.71l-.25-.26A56.24,56.24,0,0,1,401.34,143.83Z" style="fill:#455a64"></path><path d="M406.63,206.85A129.74,129.74,0,0,0,388.06,158c-1.75,18.27,5.48,36,18.57,48.83" style="fill:#455a64"></path><path d="M421.55,200.69a47.24,47.24,0,0,1,23.95-7.35C435,205.46,420.32,215,405.39,220.84,407.8,212.73,414.49,205.34,421.55,200.69Z" style="fill:#455a64"></path><path d="M372.37,180.45a67.65,67.65,0,0,0,14.17,28.7,33.46,33.46,0,0,0,7.61,7,28.73,28.73,0,0,0,11.1,4c-9-14-21.33-27.74-32.88-39.67" style="fill:#455a64"></path><path d="M465.13,111.47s-.09.1-.28.28l-.83.78c-.74.7-1.86,1.67-3.24,3-2.8,2.61-6.76,6.51-11.39,11.57a205.13,205.13,0,0,0-30.51,43.81c-4.8,9.28-8.56,18.58-10.56,27.41a107.58,107.58,0,0,0-2,12.7c-.44,4-.78,7.74-1,11.16-.47,6.84-.5,12.4-.42,16.23,0,1.91.09,3.4.13,4.41,0,.48,0,.86,0,1.15a1.91,1.91,0,0,1,0,.39,1.69,1.69,0,0,1,0-.39c0-.28-.06-.66-.09-1.14-.08-1-.17-2.5-.24-4.42-.14-3.83-.16-9.4.26-16.25.21-3.43.53-7.18,1-11.19a106.7,106.7,0,0,1,1.92-12.75c2-8.89,5.76-18.24,10.57-27.54a200.64,200.64,0,0,1,30.7-43.83c4.67-5,8.67-8.9,11.52-11.47,1.4-1.31,2.55-2.27,3.31-2.94l.87-.74A1.49,1.49,0,0,1,465.13,111.47Z" style="fill:#263238"></path><path d="M125.45,97.62s1.13,20.24,6,29.8,13.31,18,16.73,22.23S157.4,162,160,169.71s8.11,20.49,8.11,20.49l.58-.08s-9.93-31.69-13-39.33S147,134.22,141.1,125.4,125.45,97.62,125.45,97.62Z" style="fill:#455a64"></path><path d="M147.23,52.59s-8.5,17.32-2.83,48.6,10.3,47.76,13.65,53.17,10.63,35.76,10.63,35.76-.06-10.66-3.93-34.29-8.24-47.07-8.24-47.07Z" style="fill:#455a64"></path><path d="M191.35,90.52s-10.5,45.87-13.89,61.16-8.78,38.44-8.78,38.44,8.1-14.23,12.51-20.94,8.67-18.14,9-27.33,5.9-27.82,4.88-38.1S191.35,90.52,191.35,90.52Z" style="fill:#455a64"></path><path d="M174.88,60.12A82.55,82.55,0,0,0,164,100.68c.19,23-.92,50.28,2.82,59.07s1.92,30.45,1.92,30.45,4.5-32.78,5.55-41.28,1.82-55.86,1.82-55.86Z" style="fill:#455a64"></path><path d="M168.68,190.12c-5-13.29-18.55-25.65-28.76-35.54a214.8,214.8,0,0,1-23.42-26.82,55,55,0,0,0,19.74,35.11C146.32,171,160,180.07,168.1,190.2" style="fill:#455a64"></path><path d="M283.93,129.6a9.05,9.05,0,0,1,5.28,4.72,16,16,0,0,1,1.46,7.07c0,4.7-2.05,9.69-4.45,13.73-4.31-2.94-5.91-8.78-6.54-11.79-1-4.76.11-14,4.25-13.73" style="fill:#5EFF77"></path><path d="M291.67,162.23a7.71,7.71,0,0,1,1.61-7.58,10.24,10.24,0,0,1,7.23-3.23,4.32,4.32,0,0,1,3.47,1.09,3.28,3.28,0,0,1,.44,3.31,6.59,6.59,0,0,1-2.17,2.72c-3.13,2.52-6.62,4.39-10.58,3.69" style="fill:#5EFF77"></path><path d="M288.35,177a4.13,4.13,0,0,1,0-1c.05-.69.1-1.57.17-2.63a26.79,26.79,0,0,1,1.68-8.54,16.6,16.6,0,0,1,5.16-7,11.61,11.61,0,0,1,2.28-1.35c.28-.13.52-.2.67-.26a.75.75,0,0,1,.25-.06,16.68,16.68,0,0,0-3.05,1.86,17.09,17.09,0,0,0-5,6.91,29.11,29.11,0,0,0-1.76,8.44c-.11,1.1-.2,2-.28,2.62A4.8,4.8,0,0,1,288.35,177Z" style="fill:#263238"></path><path d="M283.71,136.68a2.94,2.94,0,0,1,.1.41c.05.31.12.7.21,1.19.18,1,.42,2.52.7,4.37.56,3.71,1.26,8.83,1.91,14.5s1.12,10.83,1.4,14.56c.15,1.87.25,3.38.31,4.42,0,.5.05.9.06,1.21a2.26,2.26,0,0,1,0,.42,1.75,1.75,0,0,1-.07-.42c0-.31-.07-.7-.12-1.2-.1-1.08-.24-2.58-.42-4.41-.35-3.72-.85-8.87-1.5-14.54s-1.31-10.79-1.81-14.5c-.25-1.82-.45-3.31-.59-4.39l-.15-1.2A2.19,2.19,0,0,1,283.71,136.68Z" style="fill:#263238"></path><path d="M285.25,165.86a18.09,18.09,0,0,0-11.35-12c-1.38-.47-3.13-.67-4.09.42s-.51,2.82.17,4.11a15.43,15.43,0,0,0,15.22,7.84" style="fill:#5EFF77"></path><path d="M275.05,158.21a3.79,3.79,0,0,1,.87.26,8,8,0,0,1,1,.39,14,14,0,0,1,1.28.6,16.12,16.12,0,0,1,1.48.87,18.52,18.52,0,0,1,1.61,1.14,20.23,20.23,0,0,1,3.18,3.22,19.61,19.61,0,0,1,2.3,3.89,17.86,17.86,0,0,1,.69,1.85,14.73,14.73,0,0,1,.43,1.67,10.41,10.41,0,0,1,.23,1.4,7.75,7.75,0,0,1,.1,1.06,4.23,4.23,0,0,1,0,.91c-.07,0-.09-1.3-.56-3.32a16.68,16.68,0,0,0-.47-1.63c-.18-.58-.44-1.18-.7-1.81a20.92,20.92,0,0,0-2.29-3.81,20.45,20.45,0,0,0-3.11-3.18,17,17,0,0,0-1.56-1.16c-.5-.35-1-.62-1.45-.88C276.26,158.67,275,158.28,275.05,158.21Z" style="fill:#263238"></path><path d="M93.42,438.5a38,38,0,0,0,21.1-21,1.44,1.44,0,0,0,.07-1.32c-.3-.45-1-.42-1.5-.32-10.79,2-18,11.81-19.67,22.67" style="fill:#455a64"></path><path d="M63.51,379.57a42.22,42.22,0,0,0-24.83-2.77c6.84,4.61,13.72,9.23,21.11,12.91s15.34,6.42,23.58,7A46.45,46.45,0,0,0,63.51,379.57Z" style="fill:#455a64"></path><path d="M76.4,374.71C71.35,367,63.59,361.26,55,357.83a69.85,69.85,0,0,0-27.11-4.51,58,58,0,0,0,48.52,21.95Z" style="fill:#455a64"></path><path d="M24.94,334.62a39.73,39.73,0,0,0,17,13.6,41.91,41.91,0,0,0,22.17,2.63l-.41-.74A64.86,64.86,0,0,0,24.94,334.62Z" style="fill:#455a64"></path><path d="M18.74,318.6a27.41,27.41,0,0,0,13.49,9.63c5.35,1.72,12.07,2.35,17.42.64A53.91,53.91,0,0,0,18.74,318.6Z" style="fill:#455a64"></path><path d="M38.5,314.84a25.39,25.39,0,0,0-20.4-3.2A29,29,0,0,0,38.62,315Z" style="fill:#455a64"></path><path d="M39.35,296.77A42.45,42.45,0,0,0,40,316.56,23.13,23.13,0,0,0,39.35,296.77Z" style="fill:#455a64"></path><path d="M16.37,292a29.73,29.73,0,0,0,18.05,18.4l.42-.2A37.42,37.42,0,0,0,16.37,292Z" style="fill:#455a64"></path><path d="M74.36,334.06a40.2,40.2,0,0,0-8.91-22.91c-3.61,15.1-1.11,31.83,2.42,46.94l.26-.25A40.19,40.19,0,0,0,74.36,334.06Z" style="fill:#455a64"></path><path d="M56.43,314.61c-1.52-6.86-4.57-13.26-7.6-19.59a108.41,108.41,0,0,0,4.9,39.6l.83,1.11C57.74,329.47,57.94,321.46,56.43,314.61Z" style="fill:#455a64"></path><path d="M92.16,331.88c-4,8.22-7.87,16.54-10.39,25.33s-3.63,18.11-2,27.1l.31-.31A67.16,67.16,0,0,0,92.16,331.88Z" style="fill:#455a64"></path><path d="M84.88,407a154.89,154.89,0,0,1,22.92-58c1.81,21.84-7.09,42.85-22.92,58" style="fill:#455a64"></path><path d="M67.16,399.46a56.33,56.33,0,0,0-28.48-9.14C51,405,68.41,416.53,86.15,423.76,83.4,414,75.52,405.12,67.16,399.46Z" style="fill:#455a64"></path><path d="M126.2,376.05a80.89,80.89,0,0,1-17.37,34,40,40,0,0,1-9.19,8.24c-3.52,2.15-9.42,4.33-13.31,4.58,10.93-16.55,25.88-32.8,39.87-46.86" style="fill:#455a64"></path><path d="M16.49,292.26a4.73,4.73,0,0,1,.37.3l1,.92c.9.82,2.27,2,3.94,3.6,3.39,3.15,8.15,7.89,13.7,14.05a240.12,240.12,0,0,1,18.07,22.81c3.12,4.51,6.27,9.33,9.33,14.45s6,10.56,8.82,16.22c5.63,11.33,9.93,22.72,12,33.51a142.34,142.34,0,0,1,1.94,15.45c.42,4.85.69,9.39.85,13.53.32,8.28.18,15,0,19.62-.11,2.32-.23,4.11-.34,5.33q-.08.88-.12,1.38c0,.31-.06.47-.06.47a4.15,4.15,0,0,1,0-.47L86.1,452c.07-1.21.16-3,.24-5.32.16-4.63.25-11.33-.12-19.61-.18-4.13-.47-8.66-.91-13.51a141.3,141.3,0,0,0-2-15.39c-2.12-10.73-6.41-22.07-12-33.37-2.82-5.64-5.77-11.06-8.8-16.19s-6.18-9.93-9.28-14.43a244.22,244.22,0,0,0-18-22.85c-5.5-6.18-10.22-10.95-13.56-14.14-1.65-1.64-3-2.83-3.87-3.67l-1-1Z" style="fill:#263238"></path><path d="M51.93,312c.14,0,.86,5.13,1.59,11.5S54.75,335,54.61,335s-.86-5.14-1.6-11.51S51.78,312,51.93,312Z" style="fill:#263238"></path><path d="M67.42,327c.14,0,.39,6.87.54,15.35s.17,15.36,0,15.37-.38-6.87-.54-15.36S67.28,327,67.42,327Z" style="fill:#263238"></path><path d="M63.63,350.34a4.11,4.11,0,0,1-1-.25L60,349.22l-8.58-2.93-8.59-2.88-2.6-.89a4.32,4.32,0,0,1-.94-.39,3.33,3.33,0,0,1,1,.19c.63.16,1.53.42,2.65.74,2.23.65,5.29,1.61,8.65,2.74S58,348,60.16,348.87c1.09.42,2,.77,2.56,1A4.21,4.21,0,0,1,63.63,350.34Z" style="fill:#263238"></path><path d="M88.85,351.08a7.32,7.32,0,0,1-.28,1.31c-.25.93-.56,2.12-.94,3.53-.81,3-2,7.06-3.27,11.58L81,379c-.42,1.48-.7,2.69-.88,3.53a7.81,7.81,0,0,1-.29,1.3,5.63,5.63,0,0,1,.09-1.34A34.41,34.41,0,0,1,80.6,379c.77-3,2-7.08,3.26-11.6s2.52-8.59,3.42-11.53l1.1-3.49A6.29,6.29,0,0,1,88.85,351.08Z" style="fill:#263238"></path><path d="M41.34,358.58a9.34,9.34,0,0,1,1.25.86,25.48,25.48,0,0,0,3.54,2.07,43.71,43.71,0,0,0,5.66,2.23c2.18.72,4.62,1.4,7.16,2.22a60.72,60.72,0,0,1,12.45,5.59c1.5.9,2.67,1.69,3.46,2.26a7.41,7.41,0,0,1,1.2.94,10.77,10.77,0,0,1-1.31-.77c-.82-.52-2-1.26-3.54-2.11a68.61,68.61,0,0,0-12.42-5.42c-2.53-.81-5-1.51-7.15-2.25A40.52,40.52,0,0,1,46,361.84a21.29,21.29,0,0,1-3.5-2.24c-.38-.3-.65-.57-.85-.74A1.52,1.52,0,0,1,41.34,358.58Z" style="fill:#263238"></path><path d="M53,379.44a7.31,7.31,0,0,1,1.26.54c.79.38,1.93.95,3.33,1.67,2.8,1.44,6.64,3.49,10.83,5.86s7.92,4.59,10.6,6.25c1.34.82,2.41,1.51,3.15,2a7.36,7.36,0,0,1,1.11.8,6.85,6.85,0,0,1-1.22-.62l-3.23-1.86L68.2,388l-10.74-6-3.26-1.82A6.71,6.71,0,0,1,53,379.44Z" style="fill:#263238"></path><path d="M100.63,372.94a7.47,7.47,0,0,1-.62,1.33c-.42.85-1,2.08-1.66,3.63-1.33,3.1-2.74,7.54-4.49,12.4A64.71,64.71,0,0,1,91,397a48.21,48.21,0,0,1-3,5.13c-.94,1.41-1.75,2.51-2.32,3.27a7.61,7.61,0,0,1-.92,1.15,7.6,7.6,0,0,1,.76-1.26c.56-.88,1.29-2,2.17-3.36a51.88,51.88,0,0,0,2.9-5.15,67.71,67.71,0,0,0,2.78-6.68c1.74-4.83,3.22-9.28,4.64-12.36a39.15,39.15,0,0,1,1.82-3.58A8.81,8.81,0,0,1,100.63,372.94Z" style="fill:#263238"></path><path d="M113.64,395.13a8,8,0,0,1-1.1,1.08c-.74.66-1.77,1.67-3,2.94-2.49,2.53-5.63,6.29-9.1,10.46-1.75,2.08-3.47,4-5.1,5.73a56.33,56.33,0,0,1-4.58,4.28c-.67.59-1.33,1.05-1.9,1.47a15.86,15.86,0,0,1-1.49,1,8.91,8.91,0,0,1-1.34.79,8.83,8.83,0,0,1,1.22-1c.41-.29.9-.64,1.44-1.1s1.18-.92,1.84-1.52c1.34-1.15,2.85-2.64,4.46-4.33s3.3-3.66,5-5.73c3.47-4.17,6.67-7.91,9.24-10.39a41.75,41.75,0,0,1,3.13-2.83A8.52,8.52,0,0,1,113.64,395.13Z" style="fill:#263238"></path><path d="M58,400.21a7,7,0,0,1,1.17.83l3.06,2.4c2.57,2,6.1,4.89,10,8.07s7.4,6,9.92,8.13l3,2.51a7.87,7.87,0,0,1,1,1,7.5,7.5,0,0,1-1.18-.82l-3.07-2.38c-2.58-2-6.13-4.85-10-8s-7.36-6.07-9.87-8.19l-3-2.53A8.1,8.1,0,0,1,58,400.21Z" style="fill:#263238"></path><path d="M28.5,322.68a24.87,24.87,0,0,1,3,.95c1.86.63,4.44,1.46,7.33,2.26s5.53,1.4,7.45,1.82a23.28,23.28,0,0,1,3.1.74,17,17,0,0,1-3.17-.38c-2-.33-4.62-.88-7.52-1.68A76.75,76.75,0,0,1,31.41,324,16.62,16.62,0,0,1,28.5,322.68Z" style="fill:#263238"></path><path d="M38.27,314.61a41.81,41.81,0,0,1-4.35-.9,42.79,42.79,0,0,1-4.38-.82,12.5,12.5,0,0,1,4.48.31A12.37,12.37,0,0,1,38.27,314.61Z" style="fill:#263238"></path><path d="M39,304.9a23.29,23.29,0,0,1,.82,5.64,22.12,22.12,0,0,1-.12,5.69,52.44,52.44,0,0,1-.4-5.66A48.12,48.12,0,0,1,39,304.9Z" style="fill:#263238"></path><path d="M61.44,418.07a9.06,9.06,0,0,1,1.27,1.08c.79.72,1.91,1.8,3.23,3.17a74.74,74.74,0,0,1,9.28,11.73,57.73,57.73,0,0,1,3.86,7.3c.45,1.19,1,2.29,1.26,3.38l.49,1.56c.12.51.24,1,.35,1.46a21.28,21.28,0,0,1,.49,2.55c.06.37.11.72.16,1.05s0,.61.07.89a9.07,9.07,0,0,1,0,1.66c-.12,0-.18-2.37-1.12-6.06-.13-.46-.25-.94-.39-1.44s-.34-1-.51-1.53c-.33-1.07-.83-2.16-1.29-3.33a60.35,60.35,0,0,0-3.86-7.21,83.65,83.65,0,0,0-9.1-11.75c-1.29-1.41-2.36-2.53-3.11-3.28A10.82,10.82,0,0,1,61.44,418.07Z" style="fill:#263238"></path><path d="M103.52,424.92a6,6,0,0,1-.86,1c-.59.61-1.41,1.53-2.37,2.7a51,51,0,0,0-3.16,4.28,48.6,48.6,0,0,0-5.63,11.71,50,50,0,0,0-1.38,5.14c-.31,1.49-.53,2.7-.64,3.54a6.8,6.8,0,0,1-.24,1.3,6,6,0,0,1,0-1.32,32.53,32.53,0,0,1,.48-3.59A43.4,43.4,0,0,1,91,444.48a50.24,50.24,0,0,1,2.41-6.13,48.67,48.67,0,0,1,3.28-5.7,43.22,43.22,0,0,1,3.28-4.26,33.68,33.68,0,0,1,2.5-2.61A6.51,6.51,0,0,1,103.52,424.92Z" style="fill:#263238"></path><path d="M78.09,454.6c-.12,0-.38-1.68-1.51-4.17-.14-.31-.3-.63-.46-1s-.37-.66-.57-1a25,25,0,0,0-1.39-2.15,35.7,35.7,0,0,0-3.89-4.4,49.47,49.47,0,0,0-4.55-3.74c-1.48-1-2.85-2-4-2.63s-2.16-1.23-2.84-1.6a4.88,4.88,0,0,1-1-.61,5.3,5.3,0,0,1,1.12.43c.71.31,1.72.79,2.93,1.46A46.09,46.09,0,0,1,66,437.77a44.59,44.59,0,0,1,4.63,3.75,33.71,33.71,0,0,1,3.92,4.5,24.08,24.08,0,0,1,1.38,2.22c.19.36.39.7.55,1l.44,1a13.36,13.36,0,0,1,.64,1.77,8,8,0,0,1,.35,1.36A5.85,5.85,0,0,1,78.09,454.6Z" style="fill:#263238"></path><path d="M116.53,437.19c0,.11-1.58.14-4,.71a26.2,26.2,0,0,0-4.19,1.39,25.54,25.54,0,0,0-8.75,6.17,25.15,25.15,0,0,0-2.71,3.47c-1.36,2.12-1.93,3.59-2,3.55a3.87,3.87,0,0,1,.35-1.05,10,10,0,0,1,.53-1.18,17.07,17.07,0,0,1,.83-1.51,22.94,22.94,0,0,1,2.66-3.61,27.44,27.44,0,0,1,4.11-3.64,26.65,26.65,0,0,1,4.82-2.65,24.4,24.4,0,0,1,4.29-1.3,16,16,0,0,1,1.7-.27,11.32,11.32,0,0,1,1.29-.1A4.42,4.42,0,0,1,116.53,437.19Z" style="fill:#263238"></path><path d="M85.15,263.88a9,9,0,0,1,5.28,4.72,15.92,15.92,0,0,1,1.47,7.07c0,4.7-2.05,9.7-4.45,13.74-4.31-3-5.91-8.79-6.54-11.8-1-4.76.11-14,4.24-13.73" style="fill:#5EFF77"></path><path d="M92.89,296.52a7.73,7.73,0,0,1,1.62-7.58,10.29,10.29,0,0,1,7.23-3.24,4.33,4.33,0,0,1,3.47,1.09,3.32,3.32,0,0,1,.44,3.32,6.66,6.66,0,0,1-2.17,2.71c-3.13,2.53-6.63,4.39-10.59,3.7" style="fill:#5EFF77"></path><path d="M89.57,311.33a5.93,5.93,0,0,1,0-1c0-.68.1-1.57.17-2.63a26.84,26.84,0,0,1,1.68-8.54,16.48,16.48,0,0,1,5.16-7,11.13,11.13,0,0,1,2.28-1.35,6.1,6.1,0,0,1,.67-.26l.24-.06a17.51,17.51,0,0,0-3,1.86,17.13,17.13,0,0,0-5,6.91A28.93,28.93,0,0,0,90,307.75c-.11,1.11-.2,2-.28,2.62A5.71,5.71,0,0,1,89.57,311.33Z" style="fill:#263238"></path><path d="M84.94,271a2.1,2.1,0,0,1,.09.41c.06.3.13.7.22,1.18.17,1,.41,2.53.69,4.38.56,3.7,1.27,8.82,1.92,14.5S89,302.27,89.26,306c.14,1.86.25,3.38.31,4.42q0,.74.06,1.2a2.4,2.4,0,0,1,0,.43,1.37,1.37,0,0,1-.07-.42l-.12-1.2c-.11-1.08-.25-2.58-.42-4.41-.35-3.73-.86-8.87-1.5-14.54S86.2,280.68,85.7,277c-.24-1.82-.44-3.31-.59-4.39-.06-.49-.11-.88-.15-1.19S84.92,271,84.94,271Z" style="fill:#263238"></path><path d="M86.47,300.14a18,18,0,0,0-11.35-12c-1.37-.47-3.13-.68-4.08.42s-.51,2.82.17,4.1a15.44,15.44,0,0,0,15.22,7.85" style="fill:#5EFF77"></path><path d="M76.28,292.49a4.28,4.28,0,0,1,.87.27,7.8,7.8,0,0,1,1,.38c.37.18.82.34,1.28.61a15.91,15.91,0,0,1,1.48.86,18.71,18.71,0,0,1,1.61,1.15A18.49,18.49,0,0,1,88,302.87a16.18,16.18,0,0,1,.68,1.85,14.77,14.77,0,0,1,.44,1.66c.13.51.16,1,.23,1.4a7.56,7.56,0,0,1,.09,1.07,4.89,4.89,0,0,1,0,.91c-.08,0-.1-1.3-.57-3.32a13.59,13.59,0,0,0-.46-1.63,19.37,19.37,0,0,0-.71-1.82,20.29,20.29,0,0,0-2.28-3.81A21.88,21.88,0,0,0,82.32,296c-.54-.42-1-.82-1.56-1.15a16.32,16.32,0,0,0-1.45-.89C77.49,293,76.25,292.56,76.28,292.49Z" style="fill:#263238"></path></g><g id="freepik--Rocks--inject-80"><path d="M428.37,311.42s9.61,9.18,17,8.31,21.85-6.12,21.85-6.12v-8.3l-8.3-8.74L457.21,290s-10,.44-13.11,2.19-12.67,7-12.67,7Z" style="fill:#f5f5f5"></path><path d="M428.37,311.42s0-.06,0-.2.08-.37.13-.62c.14-.58.33-1.38.56-2.4.52-2.15,1.26-5.22,2.18-9.05l0-.07.06,0,10.82-6,1.55-.87a9.43,9.43,0,0,1,1.72-.75,25.24,25.24,0,0,1,3.73-.83,77.36,77.36,0,0,1,8-.81h.2l.06.2c.55,2.08,1.15,4.29,1.75,6.55l-.06-.11,5.27,5.54,3,3.2.07.07v8.59l-.17.06c-5.71,2-11.12,3.72-16.08,4.95-1.24.3-2.44.58-3.63.78a18.29,18.29,0,0,1-3.49.39,15.69,15.69,0,0,1-6-1.61,37.87,37.87,0,0,1-7.42-4.8c-.79-.66-1.39-1.18-1.78-1.55l-.44-.43c-.1-.1-.15-.16-.14-.16s.22.17.64.52,1,.85,1.83,1.49a40.23,40.23,0,0,0,7.45,4.63,15.16,15.16,0,0,0,5.87,1.52,18.71,18.71,0,0,0,3.4-.4c1.18-.22,2.38-.5,3.61-.81,4.92-1.24,10.32-3,16-5l-.17.24q0-4,0-8.3l.08.17-3-3.19-5.27-5.55,0,0,0-.07L457,290.08l.25.18a79.38,79.38,0,0,0-8,.77,27.89,27.89,0,0,0-3.66.8,18.94,18.94,0,0,0-3.2,1.56l-10.87,5.94.08-.1c-1,3.79-1.77,6.82-2.32,8.94-.28,1-.49,1.83-.65,2.41-.07.25-.13.46-.17.63A1,1,0,0,1,428.37,311.42Z" style="fill:#263238"></path><path d="M471.51,254c-3.1-5.34-6.74-11.12-12.66-12.88-4.32-1.28-9.44-.25-13-3-2.84-2.15-3.81-6-6.3-8.58-3.74-3.85-9.82-3.82-15.19-3.53-4.55.24-9.42.59-13.06,3.34-3.4,2.57-5.18,6.85-8.61,9.38s-8.34,3-11.95,5.52-5.54,6.88-7.26,11l-4.17,10a9.53,9.53,0,0,0,3.18,11.45,30,30,0,0,0,11.44,4.86c27.39,4.92,61,3.72,83.5-6.91a4.88,4.88,0,0,0,2.15-6.85Q475.52,260.92,471.51,254Z" style="fill:#f5f5f5"></path><path d="M471.51,254s.13.19.36.56.57.95,1,1.67l3.8,6.46q1.24,2.1,2.74,4.67a7.09,7.09,0,0,1,.68,1.38,5.63,5.63,0,0,1,.24,1.6,5.16,5.16,0,0,1-1.18,3.16,5.3,5.3,0,0,1-1.39,1.14c-.54.3-1.11.5-1.67.76-1.14.49-2.29,1-3.52,1.5l-3.8,1.4c-1.31.43-2.68.83-4.07,1.26-11.19,3.23-25.07,5.12-40.46,5a186,186,0,0,1-24.07-1.75c-2.08-.27-4.16-.66-6.26-1a28.41,28.41,0,0,1-6.19-1.91A27.48,27.48,0,0,1,382,276.7a9.66,9.66,0,0,1-3.53-5.64,10.32,10.32,0,0,1,.85-6.6q1.28-3,2.52-6c1.72-3.94,3.1-8.06,5.71-11.45a13.61,13.61,0,0,1,4.85-4,58.23,58.23,0,0,1,5.7-2.22,15.88,15.88,0,0,0,5.13-2.81,28.23,28.23,0,0,0,3.8-4.36,22.85,22.85,0,0,1,3.86-4.23,14.1,14.1,0,0,1,5-2.47,48,48,0,0,1,10.57-1.18c3.41-.09,6.82.09,9.8,1.4a10.82,10.82,0,0,1,3.8,2.78,25.23,25.23,0,0,1,2.46,3.76,18.44,18.44,0,0,0,2.39,3.46,8.23,8.23,0,0,0,3.31,2.1c2.46.83,5,.83,7.26,1.11a19.09,19.09,0,0,1,3.3.62,13.49,13.49,0,0,1,2.87,1.23,17.52,17.52,0,0,1,4.19,3.45,39.12,39.12,0,0,1,4.37,6.08l1,1.69c.22.38.31.58.31.58s-.12-.18-.35-.56l-1-1.65a39.66,39.66,0,0,0-4.43-6,17.32,17.32,0,0,0-4.17-3.36,12.91,12.91,0,0,0-2.81-1.19,18.46,18.46,0,0,0-3.26-.59c-2.28-.26-4.8-.24-7.34-1.09a8.55,8.55,0,0,1-3.45-2.17,18.77,18.77,0,0,1-2.46-3.52,25,25,0,0,0-2.43-3.69,10.51,10.51,0,0,0-3.67-2.67c-2.89-1.25-6.24-1.43-9.63-1.33A48.28,48.28,0,0,0,416,227.36a13.61,13.61,0,0,0-4.85,2.4,22.17,22.17,0,0,0-3.78,4.16,28.19,28.19,0,0,1-3.86,4.43,16.38,16.38,0,0,1-5.27,2.91c-1.89.71-3.84,1.3-5.66,2.2A13.21,13.21,0,0,0,388,247.3c-2.53,3.29-3.92,7.38-5.63,11.34q-1.24,3-2.52,6A9.78,9.78,0,0,0,379,271a9.14,9.14,0,0,0,3.33,5.34,29.53,29.53,0,0,0,11.69,5c2.1.33,4.17.72,6.24,1a187,187,0,0,0,24,1.77c15.36.13,29.19-1.72,40.36-4.89,1.38-.43,2.75-.82,4.06-1.24l3.79-1.38c1.23-.45,2.37-1,3.51-1.47.56-.25,1.14-.46,1.65-.74a5.08,5.08,0,0,0,1.32-1.07,4.91,4.91,0,0,0,1.13-3,5.41,5.41,0,0,0-.22-1.51,6.63,6.63,0,0,0-.65-1.34l-2.69-4.69-3.72-6.5c-.41-.74-.73-1.3-1-1.7S471.51,254,471.51,254Z" style="fill:#263238"></path><path d="M429.6,281.82a1.86,1.86,0,0,1-.3-.47l-.75-1.38-2.69-5.14-8.7-17.05a11.69,11.69,0,0,0-3.16-4.24,9.78,9.78,0,0,0-4.66-1.52l-8.54-1-5.76-.73-1.56-.22a2,2,0,0,1-.54-.12,3.27,3.27,0,0,1,.55,0l1.57.13,5.78.57,8.56.9a10.27,10.27,0,0,1,4.9,1.59,12.19,12.19,0,0,1,3.33,4.41c3.37,6.67,6.39,12.73,8.56,17.12l2.54,5.22.67,1.43A1.84,1.84,0,0,1,429.6,281.82Z" style="fill:#263238"></path><path d="M446.24,240.65c0,.15-5.68,1.55-12.76,3.13s-12.85,2.76-12.88,2.62,5.68-1.54,12.77-3.13S446.21,240.51,446.24,240.65Z" style="fill:#263238"></path><path d="M460.06,217.61c.06.07-1.1.87-2.77,2.37a33.18,33.18,0,0,0-9.39,14.55c-.68,2.14-.92,3.52-1,3.5a3.79,3.79,0,0,1,.1-1,20.08,20.08,0,0,1,.57-2.62,29.75,29.75,0,0,1,9.5-14.73,21.29,21.29,0,0,1,2.16-1.6A3.32,3.32,0,0,1,460.06,217.61Z" style="fill:#263238"></path><path d="M448.82,208.58a5.53,5.53,0,0,1,.07,1.18c0,.75,0,1.85,0,3.2-.06,2.7-.25,6.43-.66,10.54s-1,7.8-1.46,10.45c-.24,1.33-.45,2.41-.62,3.14a6.1,6.1,0,0,1-.31,1.14,4.44,4.44,0,0,1,.11-1.17c.12-.86.28-1.91.46-3.16.39-2.67.88-6.36,1.3-10.46s.66-7.8.81-10.5c.07-1.26.13-2.32.18-3.19A4.93,4.93,0,0,1,448.82,208.58Z" style="fill:#263238"></path><path d="M438.62,217.54a23.4,23.4,0,0,1,1.24,2.89c.72,1.79,1.74,4.26,2.77,7a56.21,56.21,0,0,1,2.2,7.26,21.58,21.58,0,0,1,.37,2.28,2.83,2.83,0,0,1,0,.84c-.09,0-.28-1.17-.77-3s-1.31-4.4-2.33-7.17-2-5.26-2.63-7.1A15.44,15.44,0,0,1,438.62,217.54Z" style="fill:#263238"></path></g><g id="freepik--Ducks--inject-80"><path d="M168.36,379.56a8.87,8.87,0,0,1-1.49,0c-1,0-2.33-.19-4-.41a81,81,0,0,1-13-2.88,79.6,79.6,0,0,1-12.39-5c-1.53-.77-2.74-1.43-3.56-1.93a8.63,8.63,0,0,1-1.25-.8,7.7,7.7,0,0,1,1.34.62c.85.44,2.09,1.05,3.63,1.78A95.4,95.4,0,0,0,150,375.74a96.65,96.65,0,0,0,12.94,3c1.68.27,3,.46,4,.58A7.71,7.71,0,0,1,168.36,379.56Z" style="fill:#263238"></path><path d="M183,388.73a2.8,2.8,0,0,1-.65.09l-1.85.15c-.81.07-1.8.13-2.94.15s-2.46.1-3.91.06-3,0-4.72-.14-3.51-.23-5.42-.4a107.23,107.23,0,0,1-24.25-5.39c-1.8-.66-3.51-1.26-5.08-1.93s-3-1.27-4.34-1.88-2.48-1.19-3.51-1.7-1.9-1-2.6-1.39l-1.62-.92a2.55,2.55,0,0,1-.54-.35,2.6,2.6,0,0,1,.6.26l1.66.84c.71.37,1.59.82,2.63,1.3s2.2,1.07,3.53,1.63,2.77,1.21,4.35,1.81,3.28,1.23,5.08,1.87a120.27,120.27,0,0,0,11.92,3.35c4.3.94,8.44,1.58,12.22,2,1.9.18,3.7.38,5.39.45s3.27.17,4.71.2,2.74,0,3.89,0,2.13,0,2.94-.06l1.85,0A3.1,3.1,0,0,1,183,388.73Z" style="fill:#263238"></path><path d="M222.15,338.4a4.88,4.88,0,0,1,1.11.18c.71.14,1.73.37,3,.74a21.5,21.5,0,0,1,4.24,1.7,12.56,12.56,0,0,1,4.25,3.66,8.44,8.44,0,0,1,1.7,5.34,7.05,7.05,0,0,1-1.8,4.21,5.48,5.48,0,0,1-2.62,1.64,3.08,3.08,0,0,1-.84.12.81.81,0,0,1-.29,0c0-.06.4-.07,1.07-.3a5.68,5.68,0,0,0,2.4-1.69,6.78,6.78,0,0,0,1.6-4,8.13,8.13,0,0,0-1.64-5,12.5,12.5,0,0,0-4.06-3.54,23.29,23.29,0,0,0-4.12-1.77C223.68,338.88,222.13,338.49,222.15,338.4Z" style="fill:#263238"></path><path d="M245.25,367.25a2.67,2.67,0,0,1,.41-.42l1.22-1.14c1.06-1,2.62-2.39,4.35-4.3a24.35,24.35,0,0,0,4.85-7.53,16.08,16.08,0,0,0,1.07-5.16,12,12,0,0,0-1.1-5.48,18.55,18.55,0,0,0-7.56-7.75,54.75,54.75,0,0,0-8.25-3.72c-2.41-.93-4.36-1.72-5.67-2.34q-1-.46-1.5-.75a2.25,2.25,0,0,1-.49-.31,3.79,3.79,0,0,1,.54.21l1.53.66c1.33.57,3.29,1.3,5.72,2.18a52.05,52.05,0,0,1,8.36,3.66,18.72,18.72,0,0,1,7.79,7.94,12.42,12.42,0,0,1,1.14,5.72,16.32,16.32,0,0,1-1.14,5.31,23.86,23.86,0,0,1-5,7.61,53.8,53.8,0,0,1-4.49,4.2l-1.28,1.07A3.16,3.16,0,0,1,245.25,367.25Z" style="fill:#263238"></path><g style="opacity:0.1"><path d="M215.08,347.6l-88,.82a30.44,30.44,0,0,0,4.16,7.67c.29.39.59.77.91,1.15,5.26,4.72,11.83,3.9,13.37,11.25a13.61,13.61,0,0,0,1.13.82c9.09,5.9,22.51,3.35,33.05,3.51l1.39-.09,2.76-.24a14.88,14.88,0,0,1,5.41.13,6,6,0,0,1,1.67.77c.25.17.49.36.73.56a2.83,2.83,0,0,1,.8.33c1.61,2.46,6.53,1.64,6.53,4.93,0,2.87-5.65,3.23-6,6.3a2.44,2.44,0,0,0,.37,1.48c4.78,3.71,12.17.43,14.2,8.34a10,10,0,0,0,1.34,0,8.75,8.75,0,0,0,1.34-.16c4.32-2,8.43-4.5,7.61-8.6,0-2.47-5.75,0-6.63-4.24a5.66,5.66,0,0,0,.49-1.12,3.58,3.58,0,0,0-2.07-4.5c-.82-.82.82-2.46,1.87-3.18.33-.21.67-.41,1-.61a34.87,34.87,0,0,0,3-1.87c.37-.27.73-.56,1.07-.86,3.68-3.33-2.07-4.15-1.24-6.62s5.74-1.64,5.89-5.75a4.77,4.77,0,0,0-.15-1.36A14.55,14.55,0,0,0,215.08,347.6Z"></path></g><path d="M217.3,311.88s-.83-10.47-8.82-11.57c0,0-12.4-3.86-17.09,5.78s3,19,3,19l1.93,6.34,18.74,4.41L206,320.7s5.23-.28,7.16-1.38S217.3,311.88,217.3,311.88Z" style="fill:#455a64"></path><path d="M214.76,309.24s-1.58.48-1.21,2.79,1.46,4-.06,4.85S210,319.1,210,319.1s7.64,1.17,11.52,1.53,9.33-.36,10.06-1.09,1.45-.89,1-1.84-1.09-1.55-5.09-1.19-10.15-5.41-10.67-7.27C216.59,308.42,214.76,309.24,214.76,309.24Z" style="fill:#5EFF77"></path><path d="M205.2,308a1.3,1.3,0,0,0-1.85.62,3.23,3.23,0,0,0,0,2.21,3.07,3.07,0,0,0,.59,1.28,1.26,1.26,0,0,0,1.28.44c.66-.22.86-1.05.95-1.74a3.94,3.94,0,0,0,0-1.71c-.18-.55-.86-1.34-1.44-1.3" style="fill:#263238"></path><path d="M117.39,339.44c10.19,11,22.9,18.1,37.68,20.43s30,.53,44.4-3.55c5.08-1.44,10.32-3.32,13.83-7.26s4.57-10.55.95-14.4c0,0-14.79-9.15-25.38-11.59-17.83-4.09-56.23-.36-60.14,2.46l2,1.87L113,334.6Z" style="fill:#5EFF77"></path><path d="M194.29,333.94l-.32-.17-.93-.55c-.83-.47-2-1.16-3.66-2a48.6,48.6,0,0,0-6-2.59,31,31,0,0,0-4-1.12,23,23,0,0,0-4.58-.44c-6.51,0-14.29.57-22.94,1.45-4.32.46-8.88,1-13.54,1.88a20.8,20.8,0,0,0-6.74,2.41,14.52,14.52,0,0,0-5.28,5l-.24-.37H135l-2.1.51-.31.08-6.14,1.49.14-.42a43,43,0,0,0,11.65,9.08A55.26,55.26,0,0,0,151,353.18a76.69,76.69,0,0,0,12.24,2,85.17,85.17,0,0,0,10.77.29,40.13,40.13,0,0,0,8.74-1.29,27.74,27.74,0,0,0,6.15-2.49,21.87,21.87,0,0,0,3.46-2.36c.37-.3.65-.54.83-.71a2.5,2.5,0,0,1,.29-.24,11.59,11.59,0,0,1-1.05,1,21.48,21.48,0,0,1-3.43,2.45,27,27,0,0,1-6.18,2.58,39.14,39.14,0,0,1-8.79,1.38,85.2,85.2,0,0,1-10.82-.22,76.76,76.76,0,0,1-12.33-2,55.14,55.14,0,0,1-12.94-5,43.56,43.56,0,0,1-11.8-9.18l-.29-.32.42-.1,6.13-1.5.31-.08.06.52H125.6l.22-.38a15.12,15.12,0,0,1,5.49-5.24,21.88,21.88,0,0,1,6.9-2.46c4.7-.89,9.26-1.39,13.59-1.84,8.67-.85,16.46-1.38,23-1.34a23.69,23.69,0,0,1,4.65.48,32.41,32.41,0,0,1,4,1.16,48.29,48.29,0,0,1,6.05,2.69c1.6.84,2.81,1.56,3.62,2.06.4.25.7.45.9.59A2.4,2.4,0,0,1,194.29,333.94Z" style="fill:#263238"></path><path d="M173.34,342a8.35,8.35,0,0,1-2,1.28,25.49,25.49,0,0,1-5.35,2,24.9,24.9,0,0,1-5.67.79A8.15,8.15,0,0,1,158,346a53.26,53.26,0,0,0,7.91-1.15A53.85,53.85,0,0,0,173.34,342Z" style="fill:#263238"></path><path d="M180.77,342.4a7.69,7.69,0,0,1-2,1.63,17.5,17.5,0,0,1-11.8,2.75,7.72,7.72,0,0,1-2.47-.6c0-.09,1,.12,2.51.24a20.7,20.7,0,0,0,6-.47,20.29,20.29,0,0,0,5.57-2.23C180,342.94,180.71,342.33,180.77,342.4Z" style="fill:#263238"></path><path d="M185.62,343.08a5.32,5.32,0,0,1-1.47,1.36,14.35,14.35,0,0,1-4.34,2.14,14.55,14.55,0,0,1-4.8.58,5.26,5.26,0,0,1-2-.35,24.06,24.06,0,0,0,6.62-.73A23.93,23.93,0,0,0,185.62,343.08Z" style="fill:#263238"></path><g style="opacity:0.2"><path d="M126.78,339.84a15.61,15.61,0,0,0,6.24,8,67.7,67.7,0,0,0,8.8,5.12,52.62,52.62,0,0,0,22.73,5.24c7.83.15,16.73-.46,23.86-3.7,4.08-1.85,6-5.48,8-9.68,0,0-6.35,13.38-33.74,10.56S126.78,339.84,126.78,339.84Z"></path></g><g style="opacity:0.2"><path d="M152.68,346.31c2.08-.7,4.41-1.56,6.49-2.26a2.79,2.79,0,0,0-1.19.69.74.74,0,0,0,0,1.1c.26.23.62.15,1,.13a33.56,33.56,0,0,0,6.41-.62c-.3-.09-.53.36-.38.63a1.16,1.16,0,0,0,.79.45,15.37,15.37,0,0,0,8.5-.41l-.45.7c3.48.92,7-.92,10.31-2.22a8.28,8.28,0,0,1-3.15,3.95,16.34,16.34,0,0,1-4.59,1.54,5.72,5.72,0,0,1-3.92-.18,5.22,5.22,0,0,0-1.37-.74c-.82-.18-1.59.38-2.34.76a6.33,6.33,0,0,1-6.27-.33,5.57,5.57,0,0,0-1.24-.74,4,4,0,0,0-2.52.29,7.24,7.24,0,0,1-4.14.48c-1.36-.39-2.47-1.93-1.89-3.22"></path></g><path d="M182.14,325.09a1.4,1.4,0,0,1-.47,0l-1.36-.12c-1.17-.11-2.87-.26-5-.41A142.13,142.13,0,0,0,142.55,326c-2.08.33-3.76.62-4.92.84l-1.33.23a1.57,1.57,0,0,1-.48.05,1.53,1.53,0,0,1,.45-.15l1.32-.33c1.15-.28,2.82-.63,4.9-1a123.51,123.51,0,0,1,32.88-1.44c2.1.2,3.8.4,5,.58l1.34.21A2.14,2.14,0,0,1,182.14,325.09Z" style="fill:#fff"></path><path d="M170.53,352.75a8.24,8.24,0,0,1-1.54.18c-1,.09-2.43.13-4.21.11a57,57,0,0,1-6.25-.46,62.14,62.14,0,0,1-7.51-1.49,64,64,0,0,1-7.26-2.48,57.5,57.5,0,0,1-5.63-2.74c-1.55-.88-2.77-1.64-3.59-2.21a9.38,9.38,0,0,1-1.24-.93,8.9,8.9,0,0,1,1.35.75c.85.53,2.09,1.24,3.66,2.06a61.6,61.6,0,0,0,5.63,2.62,67.5,67.5,0,0,0,7.21,2.43,70.51,70.51,0,0,0,7.45,1.52c2.32.31,4.42.5,6.19.56s3.2.08,4.19.05A10.56,10.56,0,0,1,170.53,352.75Z" style="fill:#fff"></path><path d="M177.46,352.16c0,.13-.63.52-1.57.68s-1.72,0-1.71-.11.74-.24,1.62-.4S177.41,352,177.46,352.16Z" style="fill:#fff"></path><path d="M162.92,344.5c0,.14-.34.32-.82.4s-.87,0-.9-.12.34-.32.82-.4S162.89,344.36,162.92,344.5Z" style="fill:#fff"></path><path d="M172,344.6c.05.14-.36.41-.91.6s-1,.25-1.09.12.36-.41.91-.61S172,344.47,172,344.6Z" style="fill:#fff"></path><path d="M179.31,345.46c.07.12-.16.39-.51.58s-.7.26-.77.13.16-.39.52-.58S179.24,345.33,179.31,345.46Z" style="fill:#fff"></path><path d="M206,320.7l-3.17,7.52c5.45,3.55,6.41,7.45,7,11.86a25.7,25.7,0,0,1-1.81,13.1c4.37-2.25,8.7-7,9.24-11.86C218.09,334,209,324.64,206,320.7Z" style="fill:#455a64"></path><path d="M232.59,318.61a2,2,0,0,1-.63.43,7.8,7.8,0,0,1-1.94.71,17.43,17.43,0,0,1-6.75-.14,33.57,33.57,0,0,1-6.5-1.81,11,11,0,0,1-2.51-1.21,20.18,20.18,0,0,1,2.64.87,44.38,44.38,0,0,0,6.46,1.64,19.49,19.49,0,0,0,6.59.28A20.4,20.4,0,0,0,232.59,318.61Z" style="fill:#263238"></path><path d="M210.66,344.23c-.09,0,0-1-.11-2.6a17.91,17.91,0,0,0-5-11.09c-1.11-1.14-1.92-1.73-1.87-1.8s.24.09.62.34a10.88,10.88,0,0,1,1.51,1.2,16.14,16.14,0,0,1,5.09,11.34,12.27,12.27,0,0,1-.1,1.92A2.09,2.09,0,0,1,210.66,344.23Z" style="fill:#263238"></path><path d="M197.58,321.25c-.09.11-1-.5-1.76-1.57a3.81,3.81,0,0,1-1-2.16c.13-.06.64.84,1.38,1.85S197.68,321.14,197.58,321.25Z" style="fill:#263238"></path><path d="M199.18,322c-.11.1-.72-.46-1.36-1.24s-1.07-1.49-1-1.58.72.47,1.36,1.25S199.29,321.88,199.18,322Z" style="fill:#263238"></path><path d="M201.41,322.77c-.07.11-.9-.32-1.65-1.16s-1.1-1.7-1-1.77.64.64,1.36,1.42S201.5,322.64,201.41,322.77Z" style="fill:#263238"></path><path d="M200,302.14a15.31,15.31,0,0,1-1.61.53,9.45,9.45,0,0,0-3.36,2.18,9.3,9.3,0,0,0-2.15,3.37,15.31,15.31,0,0,1-.53,1.61,3.72,3.72,0,0,1,.17-1.73,8.54,8.54,0,0,1,5.75-5.78A3.66,3.66,0,0,1,200,302.14Z" style="fill:#fff"></path><path d="M217.86,314.49c-.09.11-.62-.16-1.18-.61s-.94-.9-.85-1,.62.16,1.18.6S218,314.38,217.86,314.49Z" style="fill:#fff"></path><path d="M325.62,276.23a6.49,6.49,0,0,1-1,.91,35,35,0,0,1-2.93,2.21,50,50,0,0,1-22.55,8.39c-1.54.17-2.79.25-3.66.26a6.18,6.18,0,0,1-1.35,0,6.88,6.88,0,0,1,1.34-.17c.86-.06,2.1-.2,3.63-.41A55.34,55.34,0,0,0,321.48,279c1.3-.83,2.33-1.54,3-2.06A7.55,7.55,0,0,1,325.62,276.23Z" style="fill:#263238"></path><path d="M338.58,275.65a2.46,2.46,0,0,1-.39.47l-1.2,1.29c-.51.57-1.16,1.24-2,2s-1.67,1.62-2.72,2.49-2.17,1.88-3.46,2.84-2.67,2-4.15,3a88.19,88.19,0,0,1-10.18,5.9A90.74,90.74,0,0,1,303.59,298c-1.73.51-3.38,1-4.95,1.39s-3,.71-4.37,1-2.56.44-3.64.6-2,.27-2.76.33l-1.76.14a2.18,2.18,0,0,1-.61,0,4.09,4.09,0,0,1,.6-.11l1.74-.25c.76-.09,1.68-.21,2.75-.41s2.29-.36,3.61-.67,2.79-.59,4.34-1,3.18-.9,4.9-1.43a85.06,85.06,0,0,0,21-10.21c1.47-1,2.9-2,4.15-3s2.44-1.9,3.48-2.78,1.95-1.71,2.76-2.43,1.48-1.36,2-1.9l1.27-1.22A2.68,2.68,0,0,1,338.58,275.65Z" style="fill:#263238"></path><path d="M222.29,268.45a7.64,7.64,0,0,1,.16-2.47,17.52,17.52,0,0,1,5.91-10.2,7.23,7.23,0,0,1,2.07-1.36,25,25,0,0,0-5.46,6.21A25.6,25.6,0,0,0,222.29,268.45Z" style="fill:#263238"></path><path d="M210.45,270.61a5.76,5.76,0,0,1,.24-1.2,10.05,10.05,0,0,1,.39-1.38c.18-.53.35-1.15.64-1.8a30.19,30.19,0,0,1,2.19-4.46,34.94,34.94,0,0,1,3.6-4.9,35.85,35.85,0,0,1,4.46-4.13,30.68,30.68,0,0,1,4.19-2.67,19,19,0,0,1,1.71-.84,13.84,13.84,0,0,1,1.33-.54,5.13,5.13,0,0,1,1.17-.37c0,.09-1.61.69-4,2.07a34.39,34.39,0,0,0-4.06,2.73,36.59,36.59,0,0,0-4.37,4.1,37.27,37.27,0,0,0-3.58,4.8,33.4,33.4,0,0,0-2.26,4.35C211,268.94,210.55,270.64,210.45,270.61Z" style="fill:#263238"></path><g style="opacity:0.1"><path d="M244.72,254.88c-.65.48-1.54,1.15-2.57,2l-1.11.85c-4,3.28-15.47,2.45-10.22,9.67a2.9,2.9,0,0,1-.48,1.08,9.74,9.74,0,0,0-.59,1.08c-.9,3.76,4,3.76,5.67,6.23.82,3.28-7.39,1.64-4.12,6.32a8.49,8.49,0,0,0,.88.67,11.12,11.12,0,0,0,1,.59c.4.22.83.42,1.26.61,2.61,1.66,3.43,1.66,4.25,4.94.82,4.11,10.68-.82,11.29,6a4.11,4.11,0,0,1-.9.62c-3,1.6-8.68,1.08-11,4.52a5.87,5.87,0,0,0-.73,1.23,5.11,5.11,0,0,0-.38,1.43,6.42,6.42,0,0,0,.62,1.19,6.81,6.81,0,0,0,4.49,3c3.61.57,7.12-1.29,10.22-3.23a29.53,29.53,0,0,0,4-2.9c.31-.28.61-.56.9-.86,2.52-2.53,5.68-2.88,7.92-4.56a5.68,5.68,0,0,0,.9-.81c.52-.7,1.34-1.52.52-2.34-3.28-3.29-14.78-3.29-10.67-7.39,4.92-4.11,13.13-.82,20.91-2.09.28,0,.56,0,.92-.08l1.48-.06,1.48-.08c2.19-.37,4.64-.6,7.18-.82l1.54-.14c7.54-1.66,23.14.8,22.8-9.21a7.24,7.24,0,0,1,.51-1.37l.59-.51c.76-.66,1.5-1.34,2.24-2l1.08-1.05c0-6.37,5.78-8,9.62-12.41.23-.39.44-.77.64-1.15a23.25,23.25,0,0,0,1.33-3.3Z"></path></g><path d="M237.09,224.81s.32-9.87,7.78-11.25c0,0,11.47-4.16,16.29,4.69s-2,18-2,18l-1.53,6-17.41,4.95,7.89-14.62s-4.93,0-6.79-1S237.09,224.81,237.09,224.81Z" style="fill:#455a64"></path><path d="M239.35,222.22s1.51.38,1.26,2.56-1.2,3.82.26,4.55,3.35,1.94,3.35,1.94-7.12,1.43-10.74,1.94-8.78.06-9.5-.59-1.4-.78-1-1.69,1-1.5,4.73-1.34,9.3-5.52,9.7-7.29C237.6,221.53,239.35,222.22,239.35,222.22Z" style="fill:#5EFF77"></path><path d="M248.27,220.65a1.24,1.24,0,0,1,1.77.51,3.06,3.06,0,0,1,.08,2.07,3,3,0,0,1-.5,1.24,1.18,1.18,0,0,1-1.18.46c-.64-.18-.85-1-1-1.6a3.76,3.76,0,0,1,0-1.6c.14-.53.75-1.3,1.3-1.28" style="fill:#263238"></path><path d="M332.07,246.35a60.49,60.49,0,0,1-34.49,20.81c-13.77,2.82-28.14,1.8-41.83-1.41-4.84-1.13-9.84-2.66-13.31-6.22s-4.73-9.7-1.51-13.47c0,0,13.49-9.23,23.33-12,16.56-4.61,52.77-2.77,56.56-.29L319,235.63l17,6Z" style="fill:#5EFF77"></path><path d="M259.64,244.52l.27-.22.82-.59c.74-.5,1.84-1.23,3.31-2.09a46,46,0,0,1,5.56-2.79,31.16,31.16,0,0,1,3.69-1.27,22.54,22.54,0,0,1,4.34-.65c6.14-.32,13.47-.16,21.65.26,4.08.24,8.38.51,12.84,1.15a20.2,20.2,0,0,1,6.58,2,14.15,14.15,0,0,1,5.39,4.68l.24.37-.45,0-6.35.29,0-.51.29.06,5.82,1.13.43.09-.27.33a41.16,41.16,0,0,1-10.69,9.14,52.27,52.27,0,0,1-11.94,5.21,71.11,71.11,0,0,1-11.49,2.38,79.52,79.52,0,0,1-10.15.68,36.8,36.8,0,0,1-8.32-.92,25.16,25.16,0,0,1-5.9-2.16A19.44,19.44,0,0,1,262,259a8.75,8.75,0,0,1-1-.92s.37.31,1.09.84a22,22,0,0,0,3.35,2.07,26,26,0,0,0,5.89,2.06,37.05,37.05,0,0,0,8.25.83,81.21,81.21,0,0,0,10.1-.73,71.26,71.26,0,0,0,11.4-2.42,51.61,51.61,0,0,0,11.82-5.19,40.7,40.7,0,0,0,10.54-9l.15.41-5.82-1.13-.29-.06-2.13-.42,2.17-.1,6.34-.29-.21.39a13.72,13.72,0,0,0-5.17-4.49,20,20,0,0,0-6.43-2c-4.41-.63-8.71-.93-12.79-1.17-8.16-.45-15.49-.65-21.6-.38a22.75,22.75,0,0,0-4.28.61,31.56,31.56,0,0,0-3.67,1.22,47,47,0,0,0-5.56,2.7c-1.49.83-2.6,1.53-3.35,2l-.85.55A1.37,1.37,0,0,1,259.64,244.52Z" style="fill:#263238"></path><path d="M279.65,251.18a54.26,54.26,0,0,0,7.15,2.3,53.85,53.85,0,0,0,7.48.75,7.34,7.34,0,0,1-2.22.26,23.91,23.91,0,0,1-10.48-2.19A7.48,7.48,0,0,1,279.65,251.18Z" style="fill:#263238"></path><path d="M272.7,251.87c.05-.07.79.47,2.08,1.14a19.19,19.19,0,0,0,5.33,1.85,18.93,18.93,0,0,0,5.63.18c1.45-.17,2.33-.4,2.35-.32a7,7,0,0,1-2.29.69,16.51,16.51,0,0,1-11.2-2.07A6.8,6.8,0,0,1,272.7,251.87Z" style="fill:#263238"></path><path d="M268.17,252.72a18.07,18.07,0,0,0,12,3,5,5,0,0,1-1.84.41,13.29,13.29,0,0,1-4.53-.33A13.57,13.57,0,0,1,269.6,254,4.81,4.81,0,0,1,268.17,252.72Z" style="fill:#263238"></path><g style="opacity:0.2"><path d="M323.28,247.14a14.66,14.66,0,0,1-5.52,7.74,63.36,63.36,0,0,1-8,5.19,49.46,49.46,0,0,1-21.11,5.9c-7.35.48-15.73.29-22.56-2.44-3.91-1.56-5.87-4.88-7.91-8.74,0,0,6.55,12.28,32.14,8.45S323.28,247.14,323.28,247.14Z"></path></g><g style="opacity:0.2"><path d="M299.24,254.34c-2-.57-4.21-1.28-6.2-1.85a2.68,2.68,0,0,1,1.16.6.69.69,0,0,1,.07,1c-.23.24-.58.17-.91.18a33,33,0,0,1-6.05-.31c.28-.1.51.31.38.57a1.05,1.05,0,0,1-.72.46,14.56,14.56,0,0,1-8,0l.45.63c-3.23,1-6.58-.56-9.78-1.64a7.78,7.78,0,0,0,3.14,3.58,15.24,15.24,0,0,0,4.36,1.24,5.38,5.38,0,0,0,3.68-.34,5.1,5.1,0,0,1,1.26-.76,3.48,3.48,0,0,1,2.22.62,6,6,0,0,0,5.88-.58,4.83,4.83,0,0,1,1.12-.74,3.79,3.79,0,0,1,2.39.15,6.62,6.62,0,0,0,3.9.27c1.26-.42,2.24-1.91,1.64-3.09"></path></g><path d="M270.66,235.69a10.37,10.37,0,0,1,1.68-.39c1.09-.22,2.67-.48,4.64-.76a115,115,0,0,1,30.93-.07c2,.27,3.55.52,4.64.74a9.88,9.88,0,0,1,1.68.38,11.82,11.82,0,0,1-1.71-.18c-1.1-.16-2.69-.36-4.65-.58a134.11,134.11,0,0,0-30.85.08c-2,.22-3.55.43-4.65.59A11,11,0,0,1,270.66,235.69Z" style="fill:#fff"></path><path d="M282.76,261.15a7.36,7.36,0,0,1,1.45-.1c.93,0,2.28-.09,3.94-.24s3.62-.4,5.78-.79a65.64,65.64,0,0,0,6.92-1.75,66.77,66.77,0,0,0,6.66-2.59c2-.93,3.75-1.85,5.18-2.7s2.58-1.56,3.35-2.09a9.54,9.54,0,0,1,1.23-.76,7.11,7.11,0,0,1-1.12.93,38.28,38.28,0,0,1-3.27,2.24,54.29,54.29,0,0,1-5.16,2.81,54,54,0,0,1-13.7,4.38,52.77,52.77,0,0,1-5.85.69c-1.67.1-3,.12-4,.08A7.75,7.75,0,0,1,282.76,261.15Z" style="fill:#fff"></path><path d="M276.23,260.9c0-.14.73,0,1.57.07s1.52.18,1.53.32-.71.31-1.6.2S276.18,261,276.23,260.9Z" style="fill:#fff"></path><path d="M289.55,253.07c0-.14.39-.21.84-.16s.8.22.78.36-.39.21-.84.16S289.53,253.22,289.55,253.07Z" style="fill:#fff"></path><path d="M281,253.57c0-.14.5-.12,1,0s.92.4.88.54-.51.12-1,0S281,253.7,281,253.57Z" style="fill:#fff"></path><path d="M274.2,254.68c.06-.12.39-.09.73.08s.57.41.5.54-.39.09-.73-.08S274.13,254.81,274.2,254.68Z" style="fill:#fff"></path><path d="M248.08,232.6l3.29,6.92c-5,3.57-5.69,7.27-6.09,11.44a24.1,24.1,0,0,0,2.27,12.21c-4.2-1.92-8.48-6.17-9.19-10.73C237.3,245.63,245.42,236.43,248.08,232.6Z" style="fill:#455a64"></path><path d="M223,231.78a16.43,16.43,0,0,0,2.5.6,18.31,18.31,0,0,0,6.17-.55,42.43,42.43,0,0,0,6-1.82,19.94,19.94,0,0,1,2.44-.92,9.51,9.51,0,0,1-2.3,1.26,31.78,31.78,0,0,1-6,2,16.46,16.46,0,0,1-6.34.41,7.37,7.37,0,0,1-1.85-.58C223.21,232,223,231.81,223,231.78Z" style="fill:#263238"></path><path d="M244.72,254.88a6.84,6.84,0,0,1-.37-2.44,15,15,0,0,1,1.05-5.86,15.22,15.22,0,0,1,3.24-5,7.23,7.23,0,0,1,1.94-1.53c0,.07-.68.66-1.67,1.78a16.91,16.91,0,0,0-4.19,10.63C244.67,253.94,244.81,254.87,244.72,254.88Z" style="fill:#263238"></path><path d="M256,232.75c-.1-.11.52-.85,1.16-1.83s1.1-1.84,1.24-1.79a3.45,3.45,0,0,1-.8,2.07C256.91,232.24,256.1,232.85,256,232.75Z" style="fill:#263238"></path><path d="M254.54,233.5c-.12-.09.25-.78.81-1.54s1.12-1.3,1.24-1.22-.25.78-.82,1.54S254.65,233.58,254.54,233.5Z" style="fill:#263238"></path><path d="M252.47,234.34c-.09-.12.48-.71,1.11-1.48s1.1-1.45,1.23-1.38-.15.89-.83,1.71S252.55,234.45,252.47,234.34Z" style="fill:#263238"></path><path d="M252.86,214.91a3.35,3.35,0,0,1,1.64.09,7.91,7.91,0,0,1,3.49,1.87,7.77,7.77,0,0,1,2.16,3.32,3.11,3.11,0,0,1,.23,1.62,13.2,13.2,0,0,1-.57-1.5,9,9,0,0,0-2.17-3.06,8.82,8.82,0,0,0-3.24-1.89A12.26,12.26,0,0,1,252.86,214.91Z" style="fill:#fff"></path><path d="M236.67,227.28c-.09-.11.24-.56.75-1s1-.72,1.08-.61-.23.55-.74,1S236.77,227.38,236.67,227.28Z" style="fill:#fff"></path></g></svg>